<svg width="717" height="608" viewBox="0 0 717 608" fill="none" xmlns="http://www.w3.org/2000/svg">
<g clip-path="url(#clip0_71_47)">
<path opacity="0.1" d="M217.699 23.3718C182.374 9.93855 145.046 -1.28257 106.941 0.128088C50.9123 2.19598 -2.87169 33.7193 -29.2106 80.0064C-51.5578 119.224 -54.3152 165.191 -63.9418 208.713C-75.7887 262.325 -98.5206 313.293 -122.792 363.123C-135.825 389.893 -149.579 417.241 -151.719 446.584C-154.685 487.325 -133.869 527.921 -101.222 555.02C-68.5747 582.119 -25.2189 596.418 18.2972 599.536C41.454 601.195 65.6528 599.656 86.2206 589.573C107.983 578.905 123.845 559.629 145.696 549.113C165.943 539.367 189.628 538.004 212.36 539.271C242.041 540.924 271.34 546.752 299.393 556.583C331.166 567.74 360.711 583.907 392.372 595.224C424.034 606.541 459.494 612.857 491.893 603.415C522.352 594.543 546.398 572.998 568.08 551.181C603.533 515.571 636.028 477.135 665.244 436.253C684.81 408.833 703.021 379.907 711.67 347.951C728.214 286.852 705.45 217.922 654.96 176.195C613.127 141.626 556.987 126.622 502.032 117.517C451.92 109.213 393.976 108.7 347.846 87.0597C303.857 66.3968 263.828 40.9249 217.699 23.3718Z" fill="#FADE32"/>
<path d="M355.044 496.133V525.252H363.324L361.721 493.993L355.044 496.133Z" fill="#AAABB0"/>
<path d="M230.668 490.258V519.377H238.956L237.353 488.118L230.668 490.258Z" fill="#AAABB0"/>
<path d="M375.347 447.514C375.347 444.562 372.956 442.168 370.005 442.168C367.055 442.168 364.663 444.562 364.663 447.514V488.655C364.663 491.608 367.055 494.002 370.005 494.002C372.956 494.002 375.347 491.608 375.347 488.655V447.514Z" fill="#AAABB0"/>
<path d="M238.283 436.02C238.283 433.068 235.891 430.674 232.94 430.674C229.99 430.674 227.598 433.068 227.598 436.02V488.647C227.598 491.6 229.99 493.993 232.94 493.993C235.891 493.993 238.283 491.6 238.283 488.647V436.02Z" fill="#AAABB0"/>
<path d="M388.982 131.984C388.982 131.984 399.667 127.44 401.27 131.984C402.873 136.529 403.674 175.803 403.674 175.803H393.519L388.982 131.984Z" fill="#AAABB0"/>
<path d="M271.956 131.984C271.956 131.984 261.263 127.44 259.66 131.984C258.057 136.529 257.255 175.803 257.255 175.803H267.411L271.956 131.984Z" fill="#AAABB0"/>
<path d="M273.551 92.9748L271.948 125.572H279.161V92.1733L273.551 92.9748Z" fill="#AAABB0"/>
<path d="M267.411 175.803L269.551 128.778C269.551 128.778 268.749 118.359 294.126 121.565C319.504 124.771 393.791 131.183 393.791 131.183V175.803H267.411Z" fill="#33323D"/>
<path d="M368.943 423.469L364.935 495.332C364.935 495.332 306.15 527.929 234.812 496.935L241.224 421.329L368.943 423.469Z" fill="#33323D"/>
<path d="M313.099 140.528L314.43 187.016H397.262L392.453 125.572L313.099 140.528Z" fill="#444053"/>
<path d="M321.515 392.739H243.493V491.589H321.515V392.739Z" fill="#4C4981"/>
<path d="M292.796 433.087C292.796 433.087 304.018 424.27 305.885 426.939C307.753 429.608 299.216 441.102 295.738 439.763C292.259 438.425 292.796 433.087 292.796 433.087Z" fill="#A0616A"/>
<path d="M604.246 173.126H92.0799V429.608H604.246V173.126Z" fill="#504F60"/>
<path d="M267.675 91.1075C267.675 91.1075 263.668 53.7011 267.675 49.1646C271.683 44.6281 339.013 1.60312 401.27 52.0981C401.27 52.0981 407.145 52.3706 406.079 65.7238C405.45 74.1751 405.493 82.663 406.207 91.1075C406.207 91.1075 272.22 100.726 267.675 91.1075Z" fill="#33323D"/>
<path opacity="0.1" d="M267.675 91.1075C267.675 91.1075 263.668 53.7011 267.675 49.1646C271.683 44.6281 339.013 1.60312 401.27 52.0981C401.27 52.0981 407.145 52.3706 406.079 65.7238C405.45 74.1751 405.493 82.663 406.207 91.1075C406.207 91.1075 272.22 100.726 267.675 91.1075Z" fill="black"/>
<path d="M267.675 95.9166C267.675 95.9166 263.668 58.5102 267.675 53.9737C271.683 49.4372 339.013 6.4122 401.27 56.9072C401.27 56.9072 407.145 57.1797 406.079 70.5329C405.45 78.9842 405.493 87.4721 406.207 95.9166C406.207 95.9166 272.22 105.535 267.675 95.9166Z" fill="#33323D"/>
<path d="M408.484 78.8203C408.484 78.8203 412.756 94.8505 411.425 97.5195C410.095 100.189 410.335 107.675 410.335 107.675C410.335 107.675 410.624 112.484 408.484 113.013C406.343 113.542 404.476 113.814 406.207 115.417C407.939 117.02 406.207 119.425 406.207 119.425C406.207 119.425 405.269 123.168 406.207 125.572C407.145 127.977 400.725 128.979 401.27 131.984C401.815 134.99 403.61 143.47 401.27 143.742C398.929 144.015 402.071 154.427 399.963 154.427C397.855 154.427 396.356 173.126 396.356 173.126C396.356 173.126 381.527 160.574 371.644 164.045C371.644 164.045 372.446 153.625 375.652 149.882C378.858 146.139 377.888 136.529 377.888 136.529L393.791 88.7029L408.484 78.8203Z" fill="#4C4981"/>
<path d="M329.13 299.86C325.659 303.699 321.916 283.197 321.916 283.197C321.916 283.197 312.033 296.823 305.621 287.741C301.18 281.45 304.683 263.624 307.224 253.277C308.362 248.676 309.324 245.55 309.324 245.55L323.752 243.146C323.752 243.146 323.8 246.287 324.12 250.103C324.553 255.256 325.491 261.652 327.487 263.183C331.006 265.836 332.609 295.989 329.13 299.86Z" fill="#AE6E79"/>
<path opacity="0.1" d="M321.652 59.8487C321.652 59.8487 296.531 59.5842 290.391 72.9373C284.251 86.2905 283.979 90.843 281.574 92.975C279.17 95.1071 307.753 106.336 307.753 106.336L309.091 152.287C309.091 152.287 314.702 146.604 323.784 149.177C332.865 151.75 344.36 149.177 344.36 149.177C344.36 149.177 343.823 148.207 351.309 149.177C358.796 150.147 382.569 137.595 382.569 137.595C382.569 137.595 382.962 117.493 382.433 113.213C381.904 108.933 399.394 77.4819 399.394 77.4819C399.394 77.4819 413.02 64.3933 398.865 59.8487C398.865 59.8487 393.855 52.2985 380.966 52.3706C368.077 52.4428 321.652 59.8487 321.652 59.8487Z" fill="black"/>
<path d="M321.652 59.0472C321.652 59.0472 296.531 58.7827 290.391 72.1358C284.251 85.4889 283.979 90.0415 281.574 92.1735C279.17 94.3055 307.753 105.535 307.753 105.535L309.091 151.485C309.091 151.485 314.702 145.802 323.784 148.375C332.865 150.948 344.36 148.375 344.36 148.375C344.36 148.375 343.823 147.405 351.309 148.375C358.796 149.345 382.569 136.793 382.569 136.793C382.569 136.793 391.916 121.565 391.387 117.293C390.858 113.021 410.087 80.6879 410.087 80.6879C410.087 80.6879 413.028 63.5917 398.865 59.0472C398.865 59.0472 393.855 51.497 380.966 51.5691C368.077 51.6413 321.652 59.0472 321.652 59.0472Z" fill="#4C4981"/>
<path opacity="0.1" d="M324.185 250.078C318.678 248.363 310.037 252.146 307.288 253.284C308.426 248.684 309.388 245.558 309.388 245.558L323.816 243.153C323.816 243.153 323.84 246.295 324.185 250.078Z" fill="black"/>
<path d="M289.317 92.1733H281.574C281.574 92.1733 279.971 108.476 281.574 113.285C283.177 118.094 283.979 117.397 283.442 120.955C282.905 124.514 287.185 129.964 287.185 129.964C287.185 129.964 287.714 143.398 290.391 148.399C293.068 153.401 287.45 175.827 287.45 175.827C288.982 179.698 291.249 183.236 294.126 186.246C298.671 190.783 301.076 207.615 299.737 214.027C298.399 220.439 303.481 222.843 303.481 222.843C303.481 222.843 305.621 252.771 306.422 252.771C307.224 252.771 322.718 244.756 327.527 251.697L323.784 224.182L324.056 171.018C324.056 171.018 318.975 164.333 321.652 158.458C324.329 152.583 319.512 138.685 319.512 138.685L312.562 107.699L289.317 92.1733Z" fill="#4C4981"/>
<path d="M241.224 514.568C241.224 514.568 230.003 512.164 229.738 514.568C229.473 516.973 216.376 541.555 232.68 548.769C248.983 555.982 292.523 571.475 363.332 551.438C363.332 551.438 367.869 553.041 366.803 543.158C365.737 533.275 365.737 522.319 365.737 522.319C365.737 522.319 355.044 519.377 347.029 520.451C339.013 521.525 269.278 535.68 241.224 514.568Z" fill="#33323D"/>
<path opacity="0.1" d="M241.224 514.568C241.224 514.568 230.003 512.164 229.738 514.568C229.473 516.973 216.376 541.555 232.68 548.769C248.983 555.982 292.523 571.475 363.332 551.438C363.332 551.438 367.869 553.041 366.803 543.158C365.737 533.275 365.737 522.319 365.737 522.319C365.737 522.319 355.044 519.377 347.029 520.451C339.013 521.525 269.278 535.68 241.224 514.568Z" fill="black"/>
<path d="M241.224 511.362C241.224 511.362 230.003 508.958 229.738 511.362C229.473 513.767 216.376 538.349 232.68 545.563C248.983 552.776 292.523 568.269 363.332 548.232C363.332 548.232 367.869 549.835 366.803 539.952C365.737 530.069 365.737 519.113 365.737 519.113C365.737 519.113 355.044 516.171 347.029 517.245C339.013 518.319 269.278 532.474 241.224 511.362Z" fill="#33323D"/>
<path d="M306.663 101.775C305.973 105.695 304.41 109.462 304.17 113.429C303.929 117.397 305.46 121.909 309.124 123.464C310.146 123.77 311.136 124.172 312.081 124.666C313.492 125.62 314.069 127.416 314.366 129.099C314.759 131.272 314.854 133.489 314.646 135.687C314.446 137.899 313.973 140.28 315.063 142.211C316.979 145.634 321.972 145.129 325.772 144.167L324.465 154.29C324.361 155.092 324.297 155.997 324.882 156.542C325.158 156.737 325.471 156.874 325.802 156.946C326.132 157.018 326.473 157.022 326.806 156.959C330.108 156.751 333.507 156.294 336.336 154.555C339.166 152.815 341.274 149.577 340.737 146.315C340.111 142.532 336.2 139.526 336.729 135.727C337.138 132.786 340.015 130.918 341.907 128.658C345.329 124.522 345.514 118.238 342.829 113.558C340.143 108.877 334.957 105.975 329.619 105.446C326.661 105.15 323.583 105.51 320.802 104.484C319.834 104.13 318.962 103.556 318.253 102.808C317.543 102.06 317.017 101.158 316.714 100.172" fill="#444053"/>
<path d="M213.443 458.198L216.24 452.107C216.24 452.107 231.341 438.04 234.812 437.054C238.283 436.068 252.446 431.772 254.586 431.772C256.726 431.772 295.738 429.632 295.738 429.632L300.274 440.324L251.316 451.073L234.812 463.095L213.443 458.198Z" fill="#767D9F"/>
<path d="M331.07 294.153L328.513 313.83L327.527 321.405L316.041 323.008C316.041 323.008 314.798 320.347 313.043 316.259C307.713 303.852 297.677 278.267 303.497 273.851C311.232 267.968 313.115 287.477 313.115 287.477L321.932 283.197L331.07 294.153Z" fill="#A0616A"/>
<path d="M329.154 330.758H271.146V418.387H329.154V330.758Z" fill="white"/>
<path opacity="0.1" d="M329.154 330.758H271.146V418.387H329.154V330.758Z" fill="black"/>
<path d="M355.226 335.503L297.841 327.019L285.025 413.706L342.409 422.189L355.226 335.503Z" fill="white"/>
<path d="M332.78 339.653L303.244 335.287L296.647 379.903L326.184 384.269L332.78 339.653Z" fill="#FADE32"/>
<path d="M329.265 397.89L293.48 392.599L292.048 402.288L327.833 407.579L329.265 397.89Z" fill="#FADE32"/>
<path opacity="0.1" d="M344.36 109.67C362.877 109.67 377.888 94.6598 377.888 76.1433C377.888 57.6268 362.877 42.6162 344.36 42.6162C325.842 42.6162 310.831 57.6268 310.831 76.1433C310.831 94.6598 325.842 109.67 344.36 109.67Z" fill="black"/>
<path d="M344.36 108.869C362.877 108.869 377.888 93.8583 377.888 75.3418C377.888 56.8253 362.877 41.8147 344.36 41.8147C325.842 41.8147 310.831 56.8253 310.831 75.3418C310.831 93.8583 325.842 108.869 344.36 108.869Z" fill="#AE6E79"/>
<path d="M316.714 100.189C316.486 99.325 316.568 98.4089 316.947 97.5997C318.221 94.9467 321.852 94.7143 324.794 94.8505C331.711 95.1711 339.302 95.2112 344.712 90.843C346.957 89.0476 349.465 84.5351 352.728 85.3927C355.629 86.1542 356.84 90.0896 359.862 90.9632C362.05 91.5964 364.318 90.5865 366.546 90.1617C369.753 89.5285 373.039 90.0575 376.293 90.0816C379.548 90.1056 383.082 89.4884 385.303 87.108C388.3 83.9019 387.812 78.8925 387.547 74.5002C387.218 68.8266 387.603 63.1341 388.693 57.5564C389.783 52.0099 391.459 45.8063 388.397 41.0533C385.479 36.5248 379.435 35.2825 375.307 31.8119C371.444 28.6059 369.4 23.4682 365.32 20.4946C360.182 16.7516 353.201 17.2886 346.884 17.9378L333.178 19.3966C329.643 19.7733 325.964 20.1981 323.054 22.306C317.804 26.1052 317.083 34 312.113 38.1599C309.901 40.0033 307.071 40.9171 304.547 42.2957C302.022 43.6742 299.585 45.8543 299.296 48.7077C299.056 51.1122 300.354 53.3324 300.988 55.6488C302.487 61.1792 300.146 66.8699 298.647 72.4404C297.148 78.0108 296.86 84.7756 301.212 88.4705C302.094 89.2239 303.12 89.801 303.977 90.5865C306.919 93.2716 307.32 97.8001 306.639 101.711" fill="#444053"/>
<path d="M347.093 117.221C347.536 117.221 347.894 116.324 347.894 115.217C347.894 114.11 347.536 113.213 347.093 113.213C346.65 113.213 346.291 114.11 346.291 115.217C346.291 116.324 346.65 117.221 347.093 117.221Z" fill="#444053"/>
<path d="M347.093 125.572C347.536 125.572 347.894 124.675 347.894 123.568C347.894 122.462 347.536 121.565 347.093 121.565C346.65 121.565 346.291 122.462 346.291 123.568C346.291 124.675 346.65 125.572 347.093 125.572Z" fill="#444053"/>
<path d="M329.315 299.804C330.172 298.818 330.741 296.285 331.07 292.943L321.515 281.033C321.515 281.033 325.563 304.124 329.315 299.804Z" fill="#AE6E79"/>
<path opacity="0.1" d="M340.087 496.67C340.087 496.67 324.409 520.908 275.426 518.311C229.281 515.907 206.758 493.2 207.832 485.185C208.906 477.17 204.89 457.661 214.773 452.05C220.504 448.804 228.047 450.728 233.369 452.924C235.208 453.671 237.221 453.881 239.174 453.531C241.128 453.18 242.942 452.284 244.406 450.944C249.272 446.56 258.345 441.623 272.669 445.51C274.512 446.002 276.456 445.966 278.28 445.406C284.243 443.587 298.439 440.429 308.739 447.442C310.367 448.564 312.28 449.199 314.256 449.275C316.231 449.35 318.188 448.862 319.896 447.867L320.041 447.778C324.85 444.837 347.293 472.625 347.293 472.625C347.293 472.625 348.367 494.001 340.087 496.67Z" fill="black"/>
<path d="M340.087 497.472C340.087 497.472 324.409 521.71 275.426 519.113C229.281 516.708 206.758 494.001 207.832 485.986C208.906 477.971 204.89 458.463 214.773 452.852C220.504 449.606 228.047 451.529 233.369 453.726C235.208 454.472 237.221 454.683 239.174 454.332C241.128 453.982 242.942 453.085 244.406 451.746C249.272 447.362 258.345 442.424 272.669 446.312C274.512 446.803 276.456 446.767 278.28 446.207C284.243 444.388 298.439 441.23 308.739 448.243C310.367 449.365 312.28 450.001 314.256 450.076C316.231 450.151 318.188 449.663 319.896 448.668L320.041 448.58C324.85 445.638 347.293 473.427 347.293 473.427C347.293 473.427 348.367 494.803 340.087 497.472Z" fill="#767D9F"/>
<path opacity="0.1" d="M275.426 506.962C293.063 506.962 307.36 492.665 307.36 475.03C307.36 457.394 293.063 443.098 275.426 443.098C257.79 443.098 243.493 457.394 243.493 475.03C243.493 492.665 257.79 506.962 275.426 506.962Z" fill="black"/>
<path d="M275.426 507.763C293.063 507.763 307.36 493.467 307.36 475.831C307.36 458.196 293.063 443.899 275.426 443.899C257.79 443.899 243.493 458.196 243.493 475.831C243.493 493.467 257.79 507.763 275.426 507.763Z" fill="#A0616A"/>
<path d="M266.273 448.227C262.922 449.133 259.62 450.864 257.985 453.71C256.999 455.425 256.654 457.485 255.227 458.911C253.207 460.939 249.801 460.979 247.067 462.117C244.334 463.256 242.531 467.263 245.208 468.529C242.418 468.674 240.35 471.247 240.006 473.803C239.661 476.36 240.631 478.909 241.569 481.346C244.631 489.232 247.925 497.464 254.674 503.074C265.671 512.228 282.247 511.803 297.02 510.833C298.227 510.873 299.424 510.597 300.491 510.032C302.094 508.974 302.294 506.946 302.559 505.166C303.673 497.568 307.793 490.667 310.486 483.413C313.179 476.16 314.285 467.64 309.749 461.22C303.072 451.698 277.51 445.182 266.273 448.227Z" fill="#2C2A2B"/>
<path opacity="0.1" d="M328.513 313.83L327.527 321.405L316.041 323.008C316.041 323.008 314.798 320.347 313.043 316.259L328.329 313.39L328.513 313.83Z" fill="black"/>
<path d="M340.616 481.177L347.301 473.427L345.963 430.682C346.621 427.599 347.068 424.473 347.301 421.329C347.566 416.784 343.959 406.637 343.959 406.637C344.518 404.606 345.278 402.635 346.227 400.754C347.83 397.548 343.967 390.334 343.967 390.334C343.967 390.334 338.212 371.635 340.616 362.282C343.021 352.928 340.031 347.59 340.031 347.59C340.031 347.59 337.683 337.17 337.947 332.898C338.212 328.626 332.601 324.611 332.601 324.611L328.329 314.191L311.232 317.397V353.465C311.232 353.465 312.298 387.93 311.232 394.614C310.165 401.299 313.364 407.703 313.364 407.703C313.364 407.703 311.496 417.586 313.099 421.329C314.702 425.072 317.908 434.153 317.908 434.153C317.313 437.398 317.497 440.739 318.446 443.899C320.049 448.58 318.446 451.249 318.446 451.249L340.616 481.177Z" fill="#767D9F"/>
<g opacity="0.1">
<path opacity="0.1" d="M388.717 54.9194C387.814 59.6111 387.408 64.3852 387.507 69.1622C387.576 65.1901 387.991 61.2316 388.749 57.3319C389.455 53.7733 390.352 49.942 390.16 46.3914C389.865 49.2623 389.383 52.111 388.717 54.9194Z" fill="black"/>
<path opacity="0.1" d="M304.002 88.0055C303.144 87.204 302.118 86.643 301.236 85.8815C298.896 83.8858 297.91 80.9923 297.717 77.8665C297.485 81.874 298.303 85.7533 301.236 88.2861C302.118 89.0475 303.144 89.6246 304.002 90.4101C305.794 92.1841 306.834 94.5814 306.903 97.1027C307.136 93.7363 306.454 90.2337 304.002 88.0055Z" fill="black"/>
<path opacity="0.1" d="M301.445 58.0775C301.585 56.3846 301.438 54.6802 301.012 53.036C300.547 51.3208 299.713 49.6456 299.409 47.9224C299.409 48.1067 299.345 48.2991 299.32 48.4994C299.088 50.904 300.387 53.1242 301.012 55.4405C301.242 56.3032 301.387 57.1864 301.445 58.0775Z" fill="black"/>
<path opacity="0.1" d="M385.327 84.471C383.107 86.8755 379.572 87.4686 376.317 87.4446C373.063 87.4205 369.769 86.8915 366.571 87.5327C364.342 87.9816 362.074 88.9835 359.886 88.3343C356.864 87.4606 355.653 83.5252 352.76 82.7638C349.466 81.8982 346.957 86.4106 344.744 88.206C339.334 92.5342 331.743 92.4941 324.826 92.2136C321.884 92.0773 318.253 92.3097 316.987 94.9707C316.6 95.7777 316.518 96.6968 316.754 97.5596L306.959 99.0985C306.922 99.9048 306.834 100.708 306.695 101.503L316.754 99.9C316.518 99.0372 316.6 98.1181 316.987 97.3111C318.253 94.6501 321.884 94.4177 324.826 94.554C331.743 94.8746 339.334 94.9146 344.744 90.5464C346.989 88.751 349.498 84.2386 352.76 85.1042C355.653 85.8576 356.864 89.801 359.886 90.6747C362.074 91.2998 364.342 90.2979 366.571 89.8732C369.777 89.2319 373.063 89.7609 376.317 89.785C379.572 89.809 383.107 89.1919 385.327 86.8114C387.547 84.4309 387.868 80.8802 387.731 77.4177C387.635 80.1028 387.082 82.5875 385.327 84.471Z" fill="black"/>
</g>
<g opacity="0.1">
<path opacity="0.1" d="M311.127 122.967C310.183 122.47 309.193 122.068 308.17 121.765C306.43 120.975 305.049 119.562 304.298 117.806C304.899 120.571 306.422 123.088 308.971 124.17C309.994 124.472 310.985 124.875 311.929 125.372C312.533 125.798 313.02 126.369 313.348 127.031C313.027 125.46 312.442 123.857 311.127 122.967Z" fill="black"/>
<path opacity="0.1" d="M324.818 142.468C321.123 143.406 316.297 143.895 314.269 140.761C314.333 141.516 314.551 142.25 314.911 142.917C316.642 146.003 320.874 145.899 324.473 145.137L324.818 142.468Z" fill="black"/>
<path opacity="0.1" d="M339.791 144.664C340.304 147.918 338.188 151.165 335.382 152.872C332.577 154.579 329.154 155.052 325.852 155.276C325.327 155.344 324.793 155.284 324.297 155.1C324.146 155.439 324.098 155.814 324.157 156.18C324.217 156.546 324.381 156.887 324.631 157.161C324.881 157.434 325.206 157.629 325.565 157.722C325.924 157.814 326.302 157.8 326.653 157.681C329.956 157.472 333.354 157.016 336.184 155.276C339.013 153.537 341.129 150.299 340.584 147.037C340.43 146.213 340.163 145.415 339.791 144.664Z" fill="black"/>
<path opacity="0.1" d="M343.35 115.65C343.839 117.598 343.877 119.633 343.46 121.599C343.043 123.564 342.183 125.408 340.945 126.991C339.053 129.283 336.176 131.119 335.767 134.06C335.631 135.413 335.91 136.774 336.569 137.964C336.496 137.467 336.496 136.962 336.569 136.465C336.977 133.523 339.855 131.656 341.747 129.396C344.857 125.636 345.289 120.098 343.35 115.65Z" fill="black"/>
</g>
<g opacity="0.1">
<path opacity="0.1" d="M247.075 463.352C249.801 462.222 253.207 462.182 255.235 460.146C256.662 458.719 257.007 456.659 257.993 454.952C259.596 452.099 262.922 450.375 266.273 449.47C277.494 446.424 303.08 452.932 309.749 462.366C311.703 465.22 312.769 468.589 312.811 472.048C313.067 468.055 311.993 464.089 309.757 460.771C303.088 451.337 277.526 444.829 266.281 447.875C262.93 448.78 259.628 450.504 258.001 453.357C257.015 455.064 256.67 457.124 255.243 458.551C253.215 460.579 249.809 460.619 247.083 461.757C245.007 462.614 243.468 465.147 244.03 466.846C244.253 466.078 244.641 465.367 245.167 464.764C245.693 464.16 246.345 463.678 247.075 463.352Z" fill="black"/>
<path opacity="0.1" d="M240.022 474.998C240.359 472.433 242.427 469.868 245.224 469.724C244.93 469.601 244.668 469.415 244.455 469.178C244.243 468.94 244.087 468.659 243.998 468.353C242.934 468.749 241.998 469.427 241.291 470.316C240.585 471.204 240.135 472.269 239.99 473.395C239.914 474.047 239.914 474.706 239.99 475.358C240.022 475.238 240.022 475.118 240.022 474.998Z" fill="black"/>
</g>
<path d="M409.814 184.539H336.873V279.654H409.814V184.539Z" fill="white"/>
<path opacity="0.1" d="M409.814 184.539H336.873V279.654H409.814V184.539Z" fill="black"/>
<path d="M437.683 190.119L365.798 202.484L381.922 296.222L453.808 283.858L437.683 190.119Z" fill="white"/>
<path d="M400.109 263.48L383.22 266.385L387.008 288.408L403.897 285.503L400.109 263.48Z" fill="#FADE32"/>
<path d="M423.48 259.456L406.591 262.361L410.379 284.384L427.268 281.479L423.48 259.456Z" fill="#FADE32"/>
<path d="M439.995 227.191L380.766 237.361L384.565 259.484L443.794 249.313L439.995 227.191Z" fill="#FADE32"/>
<path d="M435.058 200.788L375.829 210.958L376.676 215.893L435.906 205.723L435.058 200.788Z" fill="#FADE32"/>
<path d="M437.001 209.867L377.771 220.037L378.619 224.972L437.848 214.802L437.001 209.867Z" fill="#FADE32"/>
<path d="M377.888 158.699C377.888 158.699 344.36 192.362 361.192 200.914C378.025 209.466 388.982 172.461 388.982 172.461L391.643 164.045L377.888 158.699Z" fill="#AE6E79"/>
<path opacity="0.1" d="M374.955 155.725L370.811 164.878C370.811 164.878 391.25 167.748 395.523 173.927L392.99 157.777L389.984 150.884L374.955 155.725Z" fill="black"/>
<path d="M375.756 154.923L371.612 164.077C371.612 164.077 392.052 166.946 396.324 173.126L393.791 156.975L390.785 150.082L375.756 154.923Z" fill="#4C4981"/>
<path d="M499.484 323.216L499.043 323.521L499.652 323.793L500.309 323.737L500.389 323.28L499.484 323.216Z" fill="#464A5F"/>
<path opacity="0.1" d="M499.484 323.216L499.043 323.521L499.652 323.793L500.309 323.737L500.389 323.28L499.484 323.216Z" fill="black"/>
<path d="M499.484 323.216L499.035 323.505L498.682 323.072L498.898 322.719L499.099 322.655L499.484 323.216Z" fill="#9C9CA1"/>
<path opacity="0.1" d="M499.484 323.216L499.035 323.505L498.682 323.072L498.898 322.719L499.099 322.655L499.484 323.216Z" fill="black"/>
<path d="M578.38 267.824L545.565 220.431C545.274 220.008 544.903 219.646 544.472 219.367C544.041 219.088 543.56 218.896 543.055 218.803C542.55 218.71 542.032 218.717 541.53 218.825C541.028 218.932 540.552 219.137 540.13 219.429L466.981 269.635C466.125 270.223 465.537 271.126 465.346 272.146C465.155 273.166 465.377 274.221 465.963 275.078L498.69 323.072L578.38 267.824Z" fill="#9C9CA1"/>
<path opacity="0.1" d="M578.38 267.824L545.565 220.431C545.274 220.008 544.903 219.646 544.472 219.367C544.041 219.088 543.56 218.896 543.055 218.803C542.55 218.71 542.032 218.717 541.53 218.825C541.028 218.932 540.552 219.137 540.13 219.429L466.981 269.635C466.125 270.223 465.537 271.126 465.346 272.146C465.155 273.166 465.377 274.221 465.963 275.078L498.69 323.072L578.38 267.824Z" fill="black"/>
<path d="M579.182 267.936L546.366 220.543C546.075 220.12 545.703 219.758 545.271 219.478C544.84 219.199 544.358 219.007 543.852 218.914C543.347 218.821 542.828 218.829 542.326 218.936C541.823 219.044 541.347 219.249 540.924 219.541L467.782 269.78C466.927 270.367 466.339 271.269 466.147 272.289C465.954 273.309 466.174 274.363 466.756 275.222L499.483 323.24L579.182 267.936Z" fill="#9C9CA1"/>
<path d="M606.61 277.306L579.358 268.553L499.652 323.801L527.337 332.858C527.957 333.06 528.615 333.114 529.259 333.016C529.903 332.919 530.516 332.673 531.048 332.297L606.835 278.788C606.977 278.709 607.091 278.588 607.163 278.441C607.234 278.295 607.26 278.131 607.235 277.97C607.211 277.809 607.138 277.659 607.026 277.54C606.915 277.422 606.77 277.34 606.61 277.306Z" fill="#464A5F"/>
<path opacity="0.1" d="M606.61 277.306L579.358 268.553L499.652 323.801L527.337 332.858C527.957 333.06 528.615 333.114 529.259 333.016C529.903 332.919 530.516 332.673 531.048 332.297L606.835 278.788C606.977 278.709 607.091 278.588 607.163 278.441C607.234 278.295 607.26 278.131 607.235 277.97C607.211 277.809 607.138 277.659 607.026 277.54C606.915 277.422 606.77 277.34 606.61 277.306Z" fill="black"/>
<path d="M606.442 276.753L579.19 267.992L499.484 323.24L527.169 332.281C527.788 332.486 528.446 332.543 529.091 332.447C529.735 332.351 530.348 332.105 530.88 331.728L606.667 278.219C606.803 278.138 606.912 278.017 606.98 277.873C607.048 277.729 607.071 277.568 607.047 277.411C607.023 277.253 606.953 277.107 606.845 276.99C606.737 276.872 606.597 276.79 606.442 276.753Z" fill="#464A5F"/>
<g opacity="0.1">
<path opacity="0.1" d="M566.309 265.82L564.297 262.935C564.176 262.767 563.995 262.653 563.792 262.616C563.589 262.578 563.379 262.621 563.207 262.734L560.217 264.73C560.049 264.848 559.933 265.027 559.893 265.228C559.853 265.429 559.891 265.638 560.001 265.812L561.852 268.657C561.968 268.828 562.145 268.947 562.347 268.99C562.548 269.034 562.758 268.998 562.934 268.89L566.084 266.91C566.256 266.793 566.375 266.614 566.417 266.41C566.458 266.207 566.42 265.996 566.309 265.82Z" fill="black"/>
<path opacity="0.1" d="M560.938 269.539L558.918 266.662C558.797 266.494 558.617 266.38 558.414 266.343C558.21 266.305 558.001 266.348 557.828 266.461L554.847 268.473C554.677 268.59 554.56 268.768 554.518 268.969C554.476 269.171 554.513 269.381 554.622 269.555L556.474 272.401C556.588 272.572 556.765 272.693 556.966 272.738C557.168 272.783 557.379 272.748 557.556 272.641L560.714 270.661C560.803 270.603 560.88 270.528 560.94 270.439C560.999 270.351 561.041 270.252 561.062 270.147C561.083 270.043 561.082 269.935 561.061 269.831C561.04 269.726 560.998 269.627 560.938 269.539Z" fill="black"/>
<path opacity="0.1" d="M555.295 273.442L553.275 270.565C553.155 270.398 552.974 270.283 552.771 270.246C552.568 270.209 552.358 270.251 552.185 270.365L549.196 272.376C549.026 272.495 548.908 272.675 548.868 272.878C548.827 273.081 548.867 273.292 548.979 273.467L550.831 276.312C550.947 276.482 551.124 276.602 551.325 276.645C551.527 276.688 551.737 276.652 551.913 276.544L555.063 274.565C555.153 274.507 555.23 274.432 555.291 274.344C555.351 274.256 555.394 274.157 555.415 274.052C555.437 273.948 555.437 273.84 555.417 273.735C555.396 273.631 555.355 273.531 555.295 273.442Z" fill="black"/>
<path opacity="0.1" d="M549.58 277.402L547.56 274.517C547.44 274.351 547.26 274.239 547.059 274.201C546.858 274.164 546.65 274.205 546.478 274.316L543.489 276.336C543.321 276.454 543.205 276.633 543.164 276.834C543.124 277.035 543.163 277.244 543.272 277.418L545.124 280.263C545.238 280.433 545.413 280.552 545.613 280.597C545.813 280.642 546.022 280.608 546.198 280.504L549.356 278.516C549.444 278.458 549.52 278.383 549.579 278.295C549.638 278.208 549.679 278.109 549.7 278.006C549.721 277.902 549.721 277.796 549.7 277.692C549.68 277.588 549.639 277.49 549.58 277.402Z" fill="black"/>
<path opacity="0.1" d="M543.873 281.353L541.853 278.476C541.733 278.309 541.552 278.194 541.349 278.157C541.146 278.12 540.936 278.162 540.763 278.276L537.782 280.287C537.612 280.404 537.495 280.582 537.453 280.784C537.411 280.985 537.449 281.195 537.557 281.369L539.409 284.215C539.523 284.387 539.7 284.507 539.901 284.552C540.103 284.597 540.314 284.562 540.491 284.455L543.649 282.467C543.737 282.409 543.813 282.334 543.872 282.247C543.931 282.159 543.972 282.061 543.993 281.957C544.014 281.854 544.014 281.747 543.993 281.643C543.973 281.54 543.932 281.441 543.873 281.353Z" fill="black"/>
<path opacity="0.1" d="M538.415 285.666L535.906 282.091C535.879 282.051 535.845 282.017 535.805 281.991C535.765 281.964 535.72 281.946 535.673 281.937C535.626 281.928 535.578 281.929 535.531 281.938C535.485 281.948 535.44 281.967 535.401 281.995L531.73 284.471C531.689 284.497 531.655 284.531 531.627 284.571C531.6 284.61 531.581 284.655 531.571 284.702C531.562 284.749 531.562 284.797 531.571 284.845C531.58 284.892 531.599 284.936 531.626 284.976L533.926 288.511C533.979 288.592 534.061 288.649 534.155 288.67C534.25 288.691 534.349 288.674 534.431 288.623L538.31 286.219C538.357 286.192 538.397 286.156 538.428 286.112C538.46 286.069 538.481 286.019 538.491 285.966C538.501 285.914 538.499 285.859 538.486 285.808C538.473 285.756 538.448 285.707 538.415 285.666Z" fill="black"/>
<path opacity="0.1" d="M532.708 289.617L530.183 286.042C530.156 286.002 530.121 285.968 530.08 285.942C530.039 285.915 529.994 285.897 529.946 285.888C529.899 285.879 529.85 285.88 529.802 285.89C529.755 285.9 529.71 285.919 529.67 285.946L525.999 288.423C525.92 288.478 525.866 288.562 525.848 288.656C525.83 288.75 525.85 288.848 525.903 288.928L528.203 292.462C528.228 292.504 528.26 292.541 528.3 292.569C528.339 292.598 528.384 292.618 528.431 292.629C528.478 292.639 528.528 292.64 528.575 292.631C528.623 292.621 528.668 292.602 528.708 292.575L532.579 290.17C532.629 290.147 532.673 290.113 532.707 290.07C532.742 290.028 532.766 289.978 532.778 289.925C532.791 289.872 532.791 289.816 532.778 289.763C532.766 289.71 532.742 289.66 532.708 289.617Z" fill="black"/>
<path opacity="0.1" d="M527.65 293.119L525.141 289.577C525.085 289.499 525.001 289.447 524.906 289.431C524.812 289.414 524.715 289.435 524.636 289.489L520.965 291.957C520.885 292.013 520.829 292.097 520.809 292.193C520.79 292.288 520.808 292.388 520.861 292.47L523.161 296.005C523.215 296.084 523.298 296.14 523.391 296.161C523.485 296.182 523.584 296.166 523.666 296.117L527.546 293.712C527.599 293.687 527.646 293.65 527.681 293.603C527.717 293.556 527.741 293.501 527.751 293.443C527.762 293.385 527.758 293.325 527.74 293.269C527.722 293.212 527.692 293.161 527.65 293.119Z" fill="black"/>
<path opacity="0.1" d="M521.991 297.031L519.482 293.456C519.426 293.379 519.342 293.326 519.248 293.31C519.153 293.293 519.056 293.314 518.977 293.368L515.306 295.837C515.265 295.863 515.231 295.898 515.203 295.938C515.176 295.978 515.157 296.024 515.147 296.071C515.138 296.119 515.137 296.168 515.147 296.216C515.156 296.264 515.175 296.309 515.202 296.35L517.502 299.884C517.556 299.964 517.639 300.02 517.733 300.041C517.826 300.062 517.925 300.046 518.007 299.996L521.887 297.592C521.934 297.565 521.974 297.528 522.005 297.483C522.036 297.439 522.058 297.389 522.067 297.335C522.077 297.282 522.076 297.227 522.062 297.175C522.049 297.122 522.025 297.073 521.991 297.031Z" fill="black"/>
<path opacity="0.1" d="M516.509 300.798L514 297.223C513.973 297.183 513.939 297.149 513.899 297.123C513.859 297.097 513.814 297.078 513.767 297.069C513.72 297.06 513.672 297.061 513.625 297.071C513.578 297.081 513.534 297.1 513.495 297.127L509.823 299.604C509.783 299.63 509.748 299.663 509.721 299.703C509.694 299.743 509.675 299.787 509.665 299.834C509.655 299.881 509.655 299.93 509.664 299.977C509.674 300.024 509.692 300.069 509.719 300.109L512.02 303.643C512.072 303.724 512.155 303.782 512.249 303.803C512.344 303.824 512.443 303.807 512.525 303.755L516.404 301.351C516.451 301.324 516.491 301.288 516.522 301.245C516.553 301.201 516.575 301.151 516.585 301.099C516.595 301.046 516.593 300.992 516.58 300.94C516.567 300.888 516.542 300.839 516.509 300.798Z" fill="black"/>
<path opacity="0.1" d="M511.026 304.629L508.541 301.046C508.485 300.969 508.4 300.917 508.306 300.9C508.212 300.884 508.115 300.905 508.036 300.958L504.365 303.427C504.324 303.454 504.289 303.488 504.262 303.528C504.235 303.569 504.216 303.614 504.206 303.662C504.196 303.709 504.196 303.759 504.205 303.806C504.215 303.854 504.234 303.899 504.261 303.94L506.561 307.475C506.615 307.554 506.697 307.61 506.791 307.631C506.885 307.652 506.983 307.636 507.066 307.587L510.946 305.182C510.99 305.154 511.028 305.116 511.057 305.071C511.086 305.027 511.105 304.977 511.113 304.924C511.12 304.872 511.116 304.818 511.101 304.767C511.086 304.716 511.061 304.669 511.026 304.629Z" fill="black"/>
<path opacity="0.1" d="M505.543 308.42L503.034 304.845C503.008 304.806 502.974 304.772 502.934 304.745C502.894 304.719 502.849 304.701 502.802 304.692C502.755 304.683 502.707 304.683 502.66 304.693C502.613 304.703 502.569 304.722 502.529 304.749L498.858 307.21C498.818 307.236 498.783 307.27 498.756 307.309C498.729 307.349 498.71 307.393 498.7 307.44C498.69 307.488 498.69 307.536 498.699 307.583C498.709 307.63 498.727 307.675 498.754 307.715L501.055 311.25C501.107 311.331 501.19 311.388 501.284 311.409C501.379 311.43 501.477 311.413 501.559 311.362L505.439 308.957C505.483 308.931 505.521 308.895 505.551 308.853C505.58 308.81 505.6 308.762 505.61 308.712C505.62 308.661 505.619 308.609 505.608 308.559C505.596 308.509 505.574 308.461 505.543 308.42Z" fill="black"/>
<path opacity="0.1" d="M562.702 260.602L560.682 257.717C560.561 257.55 560.38 257.435 560.177 257.398C559.974 257.361 559.764 257.403 559.592 257.517L556.634 259.536C556.465 259.653 556.347 259.831 556.305 260.033C556.264 260.234 556.301 260.444 556.409 260.618L558.261 263.464C558.377 263.634 558.554 263.753 558.756 263.797C558.957 263.84 559.167 263.804 559.343 263.696L562.501 261.716C562.675 261.595 562.794 261.41 562.832 261.201C562.869 260.992 562.822 260.777 562.702 260.602Z" fill="black"/>
<path opacity="0.1" d="M554.806 249.197L552.787 246.295C552.666 246.13 552.487 246.017 552.285 245.98C552.084 245.943 551.876 245.984 551.704 246.095L548.715 248.107C548.546 248.224 548.428 248.402 548.386 248.603C548.344 248.804 548.382 249.014 548.49 249.189L550.342 252.034C550.456 252.206 550.633 252.327 550.835 252.372C551.036 252.416 551.247 252.382 551.424 252.275L554.582 250.295C554.755 250.178 554.876 249.997 554.918 249.792C554.96 249.586 554.92 249.373 554.806 249.197Z" fill="black"/>
<path opacity="0.1" d="M557.323 264.321L555.303 261.444C555.183 261.279 555.003 261.166 554.802 261.129C554.601 261.091 554.393 261.132 554.221 261.243L551.232 263.255C551.064 263.374 550.948 263.552 550.907 263.753C550.867 263.954 550.906 264.164 551.015 264.337L552.859 267.183C552.973 267.354 553.15 267.475 553.351 267.52C553.553 267.565 553.764 267.53 553.941 267.423L557.099 265.443C557.188 265.385 557.265 265.31 557.324 265.221C557.384 265.133 557.426 265.034 557.447 264.929C557.467 264.825 557.467 264.717 557.446 264.613C557.425 264.509 557.383 264.409 557.323 264.321Z" fill="black"/>
<path opacity="0.1" d="M551.68 268.225L549.66 265.347C549.54 265.18 549.359 265.066 549.156 265.028C548.953 264.991 548.743 265.033 548.57 265.147L545.589 267.135C545.417 267.252 545.298 267.431 545.256 267.634C545.214 267.838 545.253 268.049 545.364 268.225L547.216 271.07C547.332 271.24 547.509 271.36 547.71 271.403C547.912 271.446 548.122 271.41 548.298 271.303L551.456 269.323C551.629 269.205 551.75 269.025 551.792 268.82C551.834 268.614 551.794 268.401 551.68 268.225Z" fill="black"/>
<path opacity="0.1" d="M545.965 272.184L543.953 269.299C543.833 269.131 543.652 269.017 543.449 268.98C543.246 268.942 543.036 268.985 542.863 269.098L539.874 271.142C539.706 271.261 539.59 271.439 539.549 271.64C539.509 271.841 539.548 272.05 539.657 272.224L541.509 275.07C541.625 275.24 541.802 275.359 542.003 275.403C542.205 275.446 542.415 275.41 542.591 275.302L545.741 273.322C545.832 273.264 545.911 273.188 545.972 273.098C546.033 273.009 546.076 272.908 546.097 272.801C546.118 272.695 546.117 272.585 546.094 272.479C546.072 272.373 546.028 272.273 545.965 272.184Z" fill="black"/>
<path opacity="0.1" d="M549.556 253.1L547.536 250.223C547.416 250.058 547.236 249.945 547.035 249.908C546.834 249.87 546.626 249.912 546.454 250.023L543.464 252.034C543.295 252.151 543.178 252.329 543.136 252.53C543.094 252.732 543.131 252.942 543.24 253.116L545.092 255.962C545.206 256.133 545.383 256.254 545.584 256.299C545.786 256.344 545.997 256.309 546.174 256.202L549.332 254.222C549.421 254.164 549.498 254.089 549.558 254C549.617 253.912 549.659 253.813 549.68 253.708C549.701 253.604 549.7 253.496 549.679 253.392C549.658 253.288 549.616 253.188 549.556 253.1Z" fill="black"/>
<path opacity="0.1" d="M543.913 257.012L541.893 254.126C541.773 253.959 541.592 253.844 541.389 253.807C541.186 253.77 540.976 253.812 540.803 253.926L537.822 255.913C537.652 256.031 537.535 256.208 537.493 256.41C537.451 256.611 537.489 256.821 537.597 256.996L539.449 259.841C539.565 260.011 539.742 260.131 539.943 260.174C540.145 260.217 540.355 260.181 540.531 260.073L543.689 258.094C543.858 257.976 543.976 257.799 544.017 257.597C544.059 257.396 544.022 257.186 543.913 257.012Z" fill="black"/>
<path opacity="0.1" d="M538.198 260.963L536.178 258.086C536.059 257.919 535.88 257.805 535.679 257.766C535.478 257.727 535.269 257.767 535.096 257.877L532.107 259.921C531.939 260.039 531.823 260.218 531.782 260.419C531.742 260.62 531.781 260.829 531.89 261.003L533.742 263.848C533.856 264.02 534.033 264.141 534.235 264.186C534.436 264.231 534.647 264.196 534.824 264.089L537.974 262.101C538.065 262.043 538.144 261.967 538.205 261.877C538.267 261.788 538.309 261.686 538.33 261.58C538.351 261.474 538.35 261.364 538.327 261.258C538.305 261.152 538.261 261.052 538.198 260.963Z" fill="black"/>
<path opacity="0.1" d="M540.258 276.136L538.238 273.258C538.119 273.092 537.94 272.977 537.739 272.939C537.538 272.9 537.329 272.94 537.156 273.05L534.191 275.07C534.023 275.188 533.907 275.366 533.867 275.567C533.826 275.769 533.865 275.978 533.974 276.152L535.794 278.997C535.908 279.167 536.083 279.286 536.283 279.331C536.483 279.375 536.692 279.342 536.868 279.237L540.026 277.25C540.115 277.192 540.191 277.118 540.251 277.03C540.311 276.943 540.353 276.845 540.374 276.741C540.396 276.637 540.397 276.531 540.377 276.427C540.357 276.323 540.317 276.224 540.258 276.136Z" fill="black"/>
<path opacity="0.1" d="M534.551 280.087L532.531 277.21C532.41 277.042 532.23 276.928 532.027 276.891C531.823 276.853 531.614 276.896 531.441 277.009L528.459 279.021C528.29 279.138 528.173 279.316 528.131 279.517C528.089 279.719 528.126 279.928 528.235 280.103L530.087 282.948C530.201 283.12 530.378 283.241 530.579 283.286C530.781 283.331 530.992 283.296 531.169 283.189L534.327 281.209C534.416 281.151 534.493 281.075 534.553 280.987C534.612 280.899 534.654 280.8 534.675 280.695C534.696 280.591 534.695 280.483 534.674 280.379C534.653 280.274 534.611 280.175 534.551 280.087Z" fill="black"/>
<path opacity="0.1" d="M529.093 284.399L526.584 280.824C526.557 280.785 526.523 280.751 526.483 280.724C526.443 280.698 526.399 280.68 526.352 280.671C526.305 280.662 526.256 280.662 526.209 280.672C526.163 280.682 526.118 280.701 526.079 280.728L522.408 283.205C522.367 283.231 522.333 283.265 522.305 283.304C522.278 283.344 522.259 283.388 522.25 283.436C522.24 283.483 522.24 283.531 522.249 283.578C522.258 283.625 522.277 283.67 522.304 283.71L524.604 287.245C524.629 287.286 524.663 287.321 524.702 287.349C524.741 287.377 524.786 287.397 524.833 287.407C524.88 287.418 524.929 287.419 524.976 287.41C525.024 287.401 525.069 287.383 525.109 287.357L528.989 284.952C529.035 284.926 529.075 284.89 529.107 284.846C529.138 284.802 529.159 284.753 529.169 284.7C529.179 284.647 529.177 284.593 529.164 284.541C529.151 284.489 529.127 284.441 529.093 284.399Z" fill="black"/>
<path opacity="0.1" d="M524.035 287.902L521.526 284.319C521.47 284.242 521.386 284.189 521.291 284.173C521.197 284.156 521.1 284.177 521.021 284.231L517.358 286.699C517.278 286.755 517.222 286.839 517.202 286.935C517.183 287.031 517.201 287.13 517.254 287.212L519.554 290.747C519.608 290.827 519.691 290.883 519.784 290.903C519.878 290.924 519.977 290.909 520.059 290.859L523.939 288.455C523.987 288.43 524.029 288.394 524.061 288.35C524.093 288.306 524.115 288.256 524.124 288.202C524.133 288.148 524.13 288.094 524.115 288.041C524.099 287.989 524.072 287.941 524.035 287.902Z" fill="black"/>
<path opacity="0.1" d="M518.376 291.813L515.867 288.238C515.811 288.161 515.727 288.109 515.632 288.092C515.538 288.076 515.441 288.097 515.362 288.15L511.691 290.619C511.651 290.645 511.616 290.679 511.589 290.718C511.561 290.758 511.542 290.802 511.533 290.849C511.523 290.896 511.523 290.945 511.532 290.992C511.541 291.039 511.56 291.084 511.587 291.124L513.887 294.666C513.941 294.746 514.024 294.802 514.117 294.823C514.211 294.844 514.31 294.828 514.392 294.779L518.272 292.374C518.319 292.347 518.359 292.31 518.39 292.266C518.421 292.221 518.443 292.171 518.452 292.117C518.462 292.064 518.461 292.009 518.447 291.957C518.434 291.904 518.41 291.855 518.376 291.813Z" fill="black"/>
<path opacity="0.1" d="M512.893 295.612L510.385 292.037C510.358 291.998 510.324 291.964 510.284 291.937C510.244 291.911 510.199 291.893 510.152 291.884C510.105 291.875 510.057 291.875 510.01 291.885C509.963 291.895 509.919 291.914 509.88 291.941L506.208 294.386C506.168 294.412 506.133 294.446 506.106 294.485C506.079 294.525 506.06 294.569 506.05 294.616C506.04 294.663 506.04 294.712 506.05 294.759C506.059 294.806 506.077 294.851 506.104 294.891L508.405 298.425C508.457 298.507 508.54 298.564 508.634 298.585C508.729 298.606 508.828 298.589 508.91 298.538L512.789 296.133C512.831 296.106 512.867 296.071 512.895 296.031C512.923 295.99 512.942 295.943 512.952 295.895C512.962 295.846 512.962 295.796 512.952 295.747C512.941 295.699 512.922 295.653 512.893 295.612Z" fill="black"/>
<path opacity="0.1" d="M547.921 262.799L545.901 259.921C545.78 259.756 545.601 259.643 545.4 259.606C545.199 259.569 544.991 259.61 544.819 259.721L541.829 261.741C541.662 261.859 541.546 262.037 541.505 262.238C541.465 262.44 541.504 262.649 541.613 262.823L543.465 265.668C543.58 265.836 543.756 265.954 543.955 265.997C544.155 266.04 544.364 266.006 544.539 265.9L547.697 263.921C547.786 263.862 547.863 263.787 547.922 263.699C547.982 263.61 548.024 263.511 548.044 263.407C548.065 263.302 548.065 263.195 548.044 263.09C548.023 262.986 547.981 262.887 547.921 262.799Z" fill="black"/>
<path opacity="0.1" d="M542.206 266.758L540.186 263.872C540.065 263.705 539.884 263.591 539.681 263.553C539.478 263.516 539.269 263.559 539.096 263.672L536.114 265.692C535.945 265.809 535.828 265.987 535.786 266.188C535.744 266.389 535.781 266.599 535.89 266.774L537.741 269.619C537.856 269.791 538.033 269.912 538.234 269.957C538.436 270.001 538.647 269.967 538.824 269.86L541.982 267.872C542.07 267.814 542.146 267.739 542.205 267.651C542.264 267.564 542.305 267.465 542.325 267.362C542.346 267.258 542.347 267.151 542.326 267.048C542.306 266.944 542.265 266.846 542.206 266.758Z" fill="black"/>
<path opacity="0.1" d="M536.507 270.709L534.487 267.832C534.366 267.665 534.185 267.55 533.982 267.513C533.779 267.476 533.57 267.518 533.397 267.632L530.407 269.643C530.239 269.762 530.123 269.94 530.083 270.141C530.043 270.343 530.081 270.552 530.191 270.725L532.042 273.571C532.157 273.743 532.334 273.863 532.535 273.908C532.737 273.953 532.948 273.918 533.124 273.811L536.275 271.823C536.363 271.766 536.44 271.691 536.5 271.604C536.559 271.517 536.601 271.418 536.623 271.315C536.644 271.211 536.645 271.104 536.625 271.001C536.606 270.897 536.565 270.798 536.507 270.709Z" fill="black"/>
<path opacity="0.1" d="M530.792 274.661L528.772 271.783C528.651 271.618 528.472 271.505 528.271 271.468C528.07 271.431 527.862 271.472 527.69 271.583L524.7 273.595C524.532 273.713 524.416 273.891 524.376 274.092C524.336 274.294 524.374 274.503 524.484 274.677L526.335 277.554C526.45 277.724 526.625 277.843 526.825 277.888C527.024 277.933 527.234 277.899 527.41 277.795L530.568 275.815C530.661 275.757 530.742 275.68 530.805 275.589C530.868 275.498 530.911 275.395 530.932 275.287C530.953 275.178 530.951 275.067 530.927 274.959C530.903 274.851 530.857 274.75 530.792 274.661Z" fill="black"/>
<path opacity="0.1" d="M525.373 278.973L522.865 275.398C522.838 275.358 522.804 275.324 522.764 275.298C522.724 275.272 522.679 275.253 522.632 275.244C522.585 275.235 522.537 275.236 522.49 275.246C522.443 275.256 522.399 275.275 522.36 275.302L518.689 277.779C518.609 277.833 518.553 277.916 518.533 278.01C518.514 278.104 518.532 278.203 518.584 278.284L520.885 281.826C520.911 281.867 520.945 281.902 520.984 281.929C521.024 281.956 521.068 281.975 521.115 281.985C521.162 281.994 521.211 281.995 521.258 281.985C521.305 281.976 521.35 281.957 521.39 281.93L525.269 279.526C525.316 279.5 525.356 279.463 525.387 279.42C525.418 279.376 525.44 279.326 525.45 279.274C525.46 279.221 525.458 279.167 525.445 279.115C525.432 279.063 525.407 279.015 525.373 278.973Z" fill="black"/>
<path opacity="0.1" d="M520.284 282.476L517.775 278.893C517.717 278.815 517.632 278.762 517.536 278.746C517.44 278.73 517.342 278.751 517.262 278.805L513.599 281.273C513.518 281.329 513.462 281.413 513.443 281.509C513.424 281.604 513.442 281.704 513.495 281.786L515.795 285.321C515.848 285.402 515.93 285.459 516.024 285.48C516.119 285.501 516.218 285.484 516.3 285.433L520.18 283.029C520.226 283.002 520.266 282.966 520.298 282.922C520.329 282.879 520.35 282.829 520.36 282.776C520.37 282.724 520.368 282.669 520.355 282.618C520.342 282.566 520.318 282.517 520.284 282.476Z" fill="black"/>
<path opacity="0.1" d="M514.625 286.371L512.116 282.788C512.058 282.71 511.973 282.658 511.877 282.641C511.782 282.625 511.683 282.646 511.603 282.7L507.932 285.169C507.853 285.225 507.798 285.309 507.779 285.405C507.76 285.5 507.777 285.599 507.828 285.682L510.136 289.216C510.189 289.297 510.271 289.355 510.366 289.376C510.46 289.397 510.559 289.38 510.641 289.328L514.513 286.924C514.561 286.899 514.603 286.864 514.636 286.821C514.669 286.778 514.691 286.728 514.702 286.674C514.713 286.621 514.711 286.566 514.698 286.514C514.685 286.461 514.66 286.412 514.625 286.371Z" fill="black"/>
<path opacity="0.1" d="M509.142 290.186L506.633 286.611C506.606 286.571 506.571 286.537 506.53 286.511C506.49 286.484 506.444 286.466 506.397 286.457C506.349 286.448 506.3 286.449 506.253 286.459C506.205 286.469 506.16 286.488 506.12 286.515L502.449 288.992C502.371 289.047 502.317 289.131 502.299 289.225C502.281 289.319 502.3 289.417 502.353 289.497L504.653 293.032C504.678 293.073 504.711 293.11 504.75 293.138C504.789 293.167 504.834 293.187 504.881 293.198C504.929 293.208 504.978 293.209 505.026 293.2C505.073 293.19 505.119 293.171 505.158 293.144L509.03 290.739C509.078 290.715 509.12 290.679 509.153 290.636C509.186 290.593 509.209 290.543 509.219 290.49C509.23 290.437 509.229 290.382 509.215 290.329C509.202 290.277 509.177 290.228 509.142 290.186Z" fill="black"/>
<path opacity="0.1" d="M507.411 299.403L504.902 295.829C504.846 295.751 504.762 295.699 504.667 295.682C504.573 295.666 504.476 295.687 504.397 295.741L500.726 298.209C500.685 298.235 500.651 298.269 500.623 298.308C500.596 298.348 500.577 298.393 500.568 298.44C500.558 298.487 500.558 298.535 500.567 298.582C500.576 298.629 500.595 298.674 500.622 298.714L502.922 302.257C502.976 302.336 503.058 302.392 503.152 302.413C503.246 302.434 503.345 302.418 503.427 302.369L507.307 299.964C507.353 299.937 507.394 299.9 507.425 299.856C507.456 299.812 507.477 299.761 507.487 299.708C507.497 299.655 507.495 299.6 507.482 299.547C507.469 299.495 507.445 299.446 507.411 299.403Z" fill="black"/>
<path opacity="0.1" d="M501.928 303.202L499.419 299.628C499.393 299.588 499.359 299.554 499.319 299.527C499.279 299.501 499.234 299.483 499.187 299.474C499.14 299.465 499.092 299.465 499.045 299.475C498.998 299.485 498.954 299.504 498.914 299.532L495.243 302.008C495.203 302.034 495.168 302.068 495.141 302.108C495.114 302.147 495.095 302.192 495.085 302.239C495.075 302.286 495.075 302.334 495.084 302.381C495.094 302.429 495.112 302.473 495.139 302.513L497.44 306.048C497.492 306.129 497.575 306.186 497.669 306.207C497.764 306.228 497.863 306.211 497.945 306.16L501.824 303.756C501.871 303.729 501.911 303.693 501.942 303.649C501.973 303.606 501.994 303.556 502.004 303.503C502.014 303.45 502.013 303.396 501.999 303.344C501.986 303.292 501.962 303.244 501.928 303.202Z" fill="black"/>
<path opacity="0.1" d="M510.537 280.488L508.132 277.121C508.057 277.017 507.943 276.946 507.816 276.923C507.689 276.901 507.558 276.929 507.451 277.001L503.988 279.334C503.934 279.369 503.888 279.415 503.852 279.469C503.816 279.522 503.791 279.583 503.778 279.646C503.765 279.709 503.765 279.774 503.778 279.838C503.791 279.901 503.816 279.961 503.852 280.015L506.016 283.341C506.05 283.396 506.094 283.444 506.146 283.481C506.198 283.519 506.258 283.546 506.321 283.56C506.383 283.574 506.448 283.575 506.512 283.564C506.575 283.553 506.636 283.529 506.689 283.493L510.353 281.193C510.413 281.161 510.466 281.116 510.508 281.063C510.551 281.009 510.581 280.947 510.599 280.881C510.616 280.814 510.619 280.745 510.609 280.678C510.598 280.61 510.574 280.546 510.537 280.488Z" fill="black"/>
<path opacity="0.1" d="M505.054 284.287L502.69 280.92C502.654 280.867 502.607 280.822 502.553 280.786C502.499 280.751 502.439 280.727 502.376 280.715C502.312 280.703 502.247 280.704 502.184 280.717C502.121 280.73 502.061 280.756 502.008 280.792L498.546 283.165C498.492 283.2 498.446 283.245 498.41 283.298C498.374 283.35 498.349 283.41 498.336 283.473C498.323 283.535 498.323 283.6 498.336 283.663C498.349 283.725 498.374 283.785 498.409 283.838L500.574 287.172C500.644 287.28 500.754 287.356 500.88 287.384C501.005 287.413 501.137 287.391 501.247 287.325L504.91 285.024C504.972 284.989 505.025 284.94 505.067 284.883C505.108 284.825 505.137 284.758 505.151 284.688C505.164 284.619 505.163 284.546 505.146 284.477C505.13 284.408 505.098 284.343 505.054 284.287Z" fill="black"/>
<path opacity="0.1" d="M499.572 288.086L497.207 284.712C497.131 284.607 497.018 284.536 496.891 284.513C496.764 284.491 496.633 284.519 496.526 284.591L493.063 286.924C493.009 286.959 492.963 287.005 492.927 287.059C492.891 287.112 492.866 287.173 492.853 287.236C492.84 287.299 492.84 287.365 492.853 287.428C492.866 287.491 492.891 287.551 492.927 287.605L495.091 290.931C495.125 290.986 495.169 291.034 495.221 291.071C495.273 291.109 495.333 291.136 495.395 291.15C495.458 291.164 495.523 291.165 495.587 291.154C495.65 291.143 495.71 291.119 495.764 291.084L499.427 288.783C499.484 288.748 499.533 288.702 499.572 288.648C499.61 288.593 499.637 288.531 499.65 288.466C499.664 288.4 499.664 288.333 499.65 288.268C499.637 288.202 499.61 288.141 499.572 288.086Z" fill="black"/>
<path opacity="0.1" d="M494.161 291.981L491.652 288.399C491.596 288.321 491.512 288.269 491.418 288.253C491.323 288.236 491.227 288.257 491.147 288.311L487.476 290.779C487.396 290.835 487.34 290.919 487.321 291.015C487.301 291.11 487.32 291.21 487.372 291.292L489.673 294.827C489.726 294.906 489.809 294.962 489.903 294.983C489.997 295.004 490.095 294.988 490.177 294.939L494.057 292.535C494.106 292.51 494.148 292.475 494.181 292.432C494.214 292.388 494.237 292.338 494.247 292.284C494.257 292.23 494.254 292.175 494.239 292.123C494.225 292.07 494.198 292.022 494.161 291.981Z" fill="black"/>
<path opacity="0.1" d="M559.039 254.992L556.866 251.906C556.744 251.74 556.563 251.627 556.36 251.591C556.157 251.555 555.948 251.599 555.776 251.714L547.296 257.653C547.132 257.772 547.019 257.949 546.98 258.149C546.941 258.348 546.98 258.555 547.088 258.727L549.131 261.885C549.19 261.972 549.266 262.047 549.354 262.105C549.442 262.164 549.54 262.204 549.644 262.224C549.747 262.244 549.854 262.244 549.957 262.222C550.06 262.201 550.158 262.16 550.246 262.101L558.854 256.082C559.019 255.958 559.13 255.776 559.164 255.574C559.199 255.371 559.154 255.162 559.039 254.992Z" fill="black"/>
<path opacity="0.1" d="M503.644 293.865L500.982 290.106C500.955 290.066 500.92 290.031 500.879 290.005C500.838 289.979 500.793 289.961 500.745 289.952C500.697 289.944 500.648 289.946 500.6 289.957C500.553 289.968 500.508 289.989 500.469 290.018L491.316 296.43C491.238 296.483 491.184 296.566 491.166 296.659C491.148 296.752 491.167 296.848 491.22 296.927L493.72 300.798C493.747 300.84 493.782 300.876 493.823 300.904C493.864 300.932 493.91 300.951 493.959 300.961C494.007 300.971 494.057 300.97 494.106 300.96C494.155 300.95 494.201 300.931 494.241 300.902L503.547 294.386C503.629 294.329 503.684 294.243 503.702 294.145C503.72 294.048 503.699 293.947 503.644 293.865Z" fill="black"/>
<path opacity="0.1" d="M532.764 265.115L530.311 261.524C530.256 261.445 530.172 261.391 530.078 261.373C529.984 261.355 529.886 261.375 529.806 261.428L509.479 275.15C509.399 275.204 509.343 275.287 509.324 275.381C509.304 275.475 509.322 275.574 509.375 275.655L511.883 279.502C511.91 279.544 511.945 279.58 511.986 279.608C512.027 279.636 512.073 279.655 512.122 279.665C512.17 279.675 512.22 279.674 512.269 279.664C512.318 279.654 512.364 279.634 512.404 279.606L532.668 265.628C532.708 265.6 532.742 265.565 532.768 265.525C532.795 265.484 532.813 265.439 532.822 265.391C532.831 265.344 532.831 265.295 532.82 265.247C532.81 265.2 532.791 265.155 532.764 265.115Z" fill="black"/>
</g>
<path d="M566.846 265.916L564.826 263.031C564.705 262.864 564.524 262.749 564.321 262.712C564.118 262.675 563.908 262.717 563.736 262.831L560.754 264.85C560.585 264.967 560.467 265.145 560.425 265.346C560.384 265.548 560.421 265.758 560.529 265.932L562.381 268.778C562.496 268.949 562.672 269.07 562.874 269.115C563.075 269.16 563.287 269.125 563.463 269.018L566.621 267.03C566.709 266.972 566.785 266.897 566.844 266.81C566.903 266.722 566.944 266.624 566.965 266.52C566.986 266.417 566.986 266.31 566.966 266.206C566.945 266.103 566.904 266.004 566.846 265.916Z" fill="#464A5F"/>
<path d="M561.443 269.635L559.423 266.758C559.303 266.593 559.123 266.48 558.922 266.443C558.721 266.406 558.513 266.447 558.341 266.558L555.352 268.569C555.182 268.687 555.065 268.864 555.023 269.066C554.981 269.267 555.018 269.477 555.127 269.652L556.979 272.497C557.093 272.669 557.27 272.79 557.471 272.834C557.673 272.879 557.884 272.844 558.061 272.737L561.219 270.758C561.308 270.699 561.385 270.624 561.444 270.536C561.504 270.447 561.546 270.348 561.567 270.244C561.587 270.139 561.587 270.032 561.566 269.927C561.545 269.823 561.503 269.724 561.443 269.635Z" fill="#464A5F"/>
<path d="M555.832 273.547L553.812 270.669C553.692 270.502 553.511 270.388 553.308 270.35C553.105 270.313 552.895 270.356 552.722 270.469L549.741 272.489C549.572 272.606 549.454 272.783 549.412 272.985C549.37 273.186 549.408 273.396 549.516 273.571L551.368 276.416C551.484 276.587 551.661 276.706 551.862 276.749C552.064 276.792 552.274 276.756 552.45 276.649L555.608 274.669C555.697 274.611 555.774 274.535 555.834 274.447C555.893 274.359 555.935 274.259 555.956 274.155C555.977 274.05 555.977 273.943 555.955 273.838C555.934 273.734 555.892 273.635 555.832 273.547Z" fill="#464A5F"/>
<path d="M550.109 277.498L548.089 274.613C547.969 274.448 547.789 274.335 547.588 274.298C547.387 274.26 547.179 274.301 547.007 274.412L544.018 276.432C543.93 276.492 543.854 276.568 543.796 276.657C543.738 276.746 543.698 276.845 543.679 276.95C543.659 277.054 543.661 277.161 543.683 277.265C543.706 277.369 543.748 277.467 543.809 277.554L545.661 280.4C545.775 280.571 545.952 280.692 546.154 280.737C546.355 280.782 546.566 280.747 546.743 280.64L549.893 278.652C549.986 278.594 550.066 278.516 550.128 278.425C550.19 278.334 550.232 278.231 550.253 278.122C550.273 278.014 550.271 277.903 550.246 277.795C550.221 277.688 550.175 277.587 550.109 277.498Z" fill="#464A5F"/>
<path d="M544.402 281.45L542.382 278.572C542.262 278.407 542.082 278.294 541.881 278.257C541.68 278.22 541.472 278.261 541.3 278.372L538.311 280.384C538.143 280.502 538.027 280.68 537.987 280.882C537.946 281.083 537.985 281.292 538.094 281.466L539.938 284.311C540.052 284.483 540.229 284.604 540.431 284.649C540.632 284.693 540.843 284.659 541.02 284.552L544.178 282.564C544.266 282.506 544.342 282.43 544.401 282.343C544.46 282.255 544.501 282.157 544.522 282.053C544.543 281.95 544.543 281.843 544.522 281.74C544.502 281.636 544.461 281.537 544.402 281.45Z" fill="#464A5F"/>
<path d="M538.944 285.762L536.435 282.187C536.408 282.147 536.374 282.113 536.334 282.087C536.294 282.06 536.25 282.042 536.203 282.033C536.156 282.024 536.107 282.025 536.06 282.035C536.014 282.045 535.969 282.064 535.93 282.091L532.259 284.568C532.218 284.593 532.184 284.627 532.156 284.667C532.129 284.706 532.11 284.751 532.101 284.798C532.091 284.845 532.091 284.894 532.1 284.941C532.109 284.988 532.128 285.033 532.155 285.072L534.455 288.607C534.508 288.688 534.59 288.746 534.685 288.767C534.779 288.788 534.878 288.771 534.96 288.719L538.84 286.315C538.886 286.288 538.926 286.252 538.958 286.209C538.989 286.165 539.01 286.115 539.02 286.062C539.03 286.01 539.028 285.956 539.015 285.904C539.002 285.852 538.978 285.803 538.944 285.762Z" fill="#464A5F"/>
<path d="M533.237 289.713L530.728 286.138C530.701 286.098 530.666 286.064 530.625 286.038C530.584 286.011 530.539 285.993 530.491 285.984C530.444 285.975 530.395 285.975 530.347 285.985C530.3 285.995 530.255 286.015 530.215 286.042L526.552 288.519C526.511 288.545 526.477 288.579 526.449 288.618C526.422 288.658 526.403 288.702 526.393 288.749C526.384 288.796 526.384 288.845 526.393 288.892C526.402 288.939 526.421 288.984 526.448 289.024L528.748 292.566C528.774 292.607 528.808 292.642 528.847 292.669C528.887 292.696 528.932 292.715 528.979 292.725C529.026 292.734 529.074 292.735 529.121 292.725C529.168 292.716 529.213 292.697 529.253 292.671L533.133 290.266C533.178 290.239 533.217 290.202 533.248 290.158C533.278 290.115 533.299 290.065 533.309 290.013C533.319 289.961 533.317 289.907 533.305 289.855C533.292 289.804 533.269 289.755 533.237 289.713Z" fill="#464A5F"/>
<path d="M528.179 293.216L525.67 289.633C525.614 289.556 525.53 289.503 525.435 289.487C525.341 289.47 525.244 289.491 525.165 289.545L521.494 291.982C521.414 292.037 521.358 292.121 521.338 292.217C521.319 292.313 521.337 292.412 521.39 292.495L523.69 296.029C523.744 296.109 523.827 296.165 523.92 296.186C524.014 296.206 524.113 296.191 524.195 296.141L528.075 293.737C528.117 293.71 528.152 293.675 528.18 293.634C528.208 293.593 528.228 293.547 528.238 293.499C528.247 293.45 528.247 293.4 528.237 293.351C528.227 293.303 528.207 293.257 528.179 293.216Z" fill="#464A5F"/>
<path d="M522.52 297.135L520.011 293.584C519.955 293.507 519.871 293.455 519.777 293.438C519.682 293.422 519.585 293.442 519.506 293.496L515.835 295.965C515.794 295.991 515.76 296.026 515.732 296.066C515.705 296.107 515.686 296.152 515.676 296.2C515.667 296.247 515.666 296.296 515.676 296.344C515.685 296.392 515.704 296.437 515.731 296.478L518.031 300.012C518.085 300.092 518.168 300.148 518.262 300.169C518.356 300.19 518.454 300.174 518.536 300.125L522.416 297.72C522.468 297.695 522.513 297.657 522.548 297.611C522.583 297.565 522.606 297.511 522.616 297.454C522.626 297.397 522.623 297.338 522.606 297.283C522.589 297.228 522.56 297.177 522.52 297.135Z" fill="#464A5F"/>
<path d="M517.037 300.926L514.529 297.352C514.502 297.312 514.468 297.278 514.428 297.251C514.388 297.225 514.343 297.207 514.296 297.198C514.249 297.189 514.201 297.189 514.154 297.199C514.107 297.209 514.063 297.228 514.024 297.255L510.353 299.732C510.312 299.758 510.277 299.792 510.25 299.831C510.223 299.871 510.204 299.916 510.194 299.963C510.185 300.01 510.184 300.058 510.194 300.105C510.203 300.152 510.221 300.197 510.248 300.237L512.549 303.772C512.574 303.813 512.607 303.848 512.647 303.876C512.686 303.904 512.73 303.924 512.778 303.935C512.825 303.945 512.873 303.946 512.921 303.937C512.968 303.929 513.013 303.91 513.054 303.884L516.933 301.479C516.98 301.453 517.02 301.417 517.051 301.373C517.082 301.33 517.104 301.28 517.114 301.227C517.123 301.174 517.122 301.12 517.109 301.068C517.096 301.016 517.071 300.968 517.037 300.926Z" fill="#464A5F"/>
<path d="M511.555 304.725L509.046 301.143C508.99 301.065 508.906 301.013 508.811 300.996C508.717 300.98 508.62 301.001 508.541 301.054L504.87 303.523C504.789 303.578 504.734 303.663 504.714 303.759C504.695 303.854 504.713 303.954 504.766 304.036L507.066 307.571C507.12 307.65 507.202 307.706 507.296 307.727C507.39 307.748 507.489 307.732 507.571 307.683L511.451 305.278C511.497 305.252 511.538 305.216 511.569 305.172C511.6 305.129 511.621 305.079 511.631 305.026C511.641 304.973 511.639 304.919 511.626 304.867C511.613 304.815 511.589 304.767 511.555 304.725Z" fill="#464A5F"/>
<path d="M506.072 308.516L503.563 304.942C503.537 304.902 503.503 304.868 503.463 304.841C503.423 304.815 503.378 304.797 503.331 304.788C503.284 304.779 503.236 304.779 503.189 304.789C503.142 304.799 503.098 304.818 503.058 304.845L499.387 307.322C499.347 307.348 499.312 307.382 499.285 307.421C499.258 307.461 499.239 307.506 499.229 307.553C499.219 307.6 499.219 307.648 499.228 307.695C499.238 307.743 499.256 307.787 499.283 307.827L501.584 311.362C501.609 311.403 501.642 311.438 501.681 311.466C501.721 311.494 501.765 311.514 501.812 311.525C501.859 311.535 501.908 311.536 501.956 311.527C502.003 311.519 502.048 311.5 502.089 311.474L505.968 309.069C506.015 309.043 506.055 309.007 506.086 308.963C506.117 308.92 506.138 308.87 506.148 308.817C506.158 308.764 506.157 308.71 506.143 308.658C506.13 308.606 506.106 308.558 506.072 308.516Z" fill="#464A5F"/>
<path d="M563.231 260.723L561.211 257.837C561.09 257.672 560.911 257.559 560.71 257.522C560.508 257.485 560.301 257.526 560.129 257.637L557.139 259.657C556.971 259.775 556.855 259.953 556.815 260.154C556.775 260.356 556.813 260.565 556.923 260.739L558.766 263.584C558.881 263.756 559.057 263.877 559.259 263.921C559.46 263.966 559.672 263.931 559.848 263.824L563.006 261.837C563.094 261.778 563.17 261.703 563.229 261.616C563.288 261.528 563.329 261.43 563.35 261.326C563.371 261.223 563.371 261.116 563.351 261.012C563.33 260.909 563.289 260.81 563.231 260.723Z" fill="#464A5F"/>
<path d="M555.336 249.293L553.316 246.416C553.195 246.251 553.016 246.138 552.814 246.101C552.613 246.063 552.405 246.104 552.234 246.215L549.244 248.227C549.076 248.346 548.96 248.524 548.92 248.725C548.879 248.926 548.918 249.135 549.027 249.309L550.879 252.155C550.993 252.324 551.168 252.444 551.368 252.488C551.568 252.533 551.777 252.5 551.953 252.395L555.111 250.415C555.2 250.357 555.277 250.282 555.337 250.193C555.396 250.105 555.438 250.006 555.459 249.901C555.48 249.797 555.48 249.689 555.458 249.585C555.437 249.48 555.395 249.381 555.336 249.293Z" fill="#464A5F"/>
<path d="M557.852 264.418L555.832 261.524C555.712 261.359 555.532 261.246 555.331 261.209C555.13 261.172 554.922 261.213 554.75 261.324L551.761 263.336C551.593 263.454 551.477 263.632 551.437 263.833C551.396 264.035 551.435 264.244 551.544 264.418L553.396 267.263C553.51 267.433 553.685 267.552 553.885 267.597C554.085 267.641 554.294 267.608 554.47 267.503L557.628 265.524C557.804 265.406 557.926 265.224 557.968 265.017C558.01 264.81 557.968 264.594 557.852 264.418Z" fill="#464A5F"/>
<path d="M552.209 268.321L550.222 265.443C550.101 265.278 549.922 265.165 549.72 265.128C549.519 265.091 549.311 265.132 549.139 265.243L546.15 267.255C545.98 267.373 545.862 267.553 545.822 267.756C545.782 267.959 545.822 268.17 545.933 268.345L547.777 271.19C547.893 271.361 548.07 271.48 548.271 271.523C548.473 271.566 548.683 271.53 548.859 271.423L552.017 269.443C552.104 269.382 552.177 269.305 552.234 269.215C552.291 269.126 552.329 269.026 552.347 268.922C552.365 268.818 552.362 268.711 552.338 268.608C552.315 268.504 552.271 268.407 552.209 268.321Z" fill="#464A5F"/>
<path d="M546.502 272.28L544.482 269.395C544.362 269.228 544.181 269.113 543.978 269.076C543.774 269.039 543.565 269.081 543.392 269.195L540.411 271.214C540.241 271.331 540.124 271.509 540.082 271.711C540.04 271.912 540.078 272.122 540.186 272.296L542.038 275.142C542.152 275.314 542.329 275.434 542.53 275.479C542.732 275.524 542.943 275.489 543.12 275.382L546.278 273.394C546.366 273.336 546.442 273.261 546.501 273.174C546.56 273.086 546.601 272.988 546.622 272.884C546.643 272.781 546.643 272.674 546.622 272.57C546.602 272.467 546.561 272.368 546.502 272.28Z" fill="#464A5F"/>
<path d="M550.085 253.196L548.065 250.303C547.945 250.138 547.765 250.025 547.564 249.988C547.363 249.951 547.155 249.992 546.983 250.103L543.994 252.114C543.826 252.233 543.71 252.411 543.669 252.612C543.629 252.814 543.668 253.023 543.777 253.196L545.629 256.042C545.743 256.211 545.918 256.331 546.118 256.375C546.318 256.42 546.527 256.387 546.703 256.282L549.861 254.302C550.037 254.185 550.159 254.003 550.201 253.796C550.243 253.588 550.201 253.373 550.085 253.196Z" fill="#464A5F"/>
<path d="M544.442 257.108L542.422 254.222C542.302 254.057 542.122 253.944 541.921 253.907C541.72 253.87 541.512 253.911 541.34 254.022L538.351 256.042C538.181 256.159 538.064 256.337 538.022 256.538C537.98 256.739 538.018 256.949 538.126 257.124L539.978 259.969C540.092 260.141 540.269 260.262 540.471 260.307C540.672 260.351 540.883 260.317 541.06 260.21L544.218 258.222C544.306 258.164 544.382 258.089 544.441 258.001C544.5 257.913 544.541 257.815 544.562 257.712C544.583 257.608 544.583 257.501 544.562 257.398C544.542 257.294 544.501 257.196 544.442 257.108Z" fill="#464A5F"/>
<path d="M538.735 261.059L536.715 258.182C536.595 258.014 536.414 257.9 536.211 257.863C536.008 257.825 535.798 257.868 535.625 257.981L532.644 259.993C532.474 260.11 532.357 260.288 532.315 260.489C532.273 260.691 532.311 260.901 532.419 261.075L534.271 263.929C534.385 264.1 534.562 264.221 534.763 264.266C534.965 264.311 535.176 264.276 535.353 264.169L538.503 262.181C538.593 262.124 538.67 262.049 538.731 261.961C538.791 261.873 538.833 261.774 538.855 261.669C538.877 261.565 538.877 261.457 538.857 261.352C538.836 261.247 538.795 261.148 538.735 261.059Z" fill="#464A5F"/>
<path d="M540.787 276.232L538.767 273.355C538.647 273.189 538.467 273.077 538.266 273.039C538.065 273.002 537.857 273.043 537.685 273.154L534.696 275.15C534.528 275.268 534.412 275.446 534.371 275.648C534.331 275.849 534.37 276.058 534.479 276.232L536.331 279.077C536.445 279.247 536.62 279.366 536.82 279.411C537.02 279.456 537.229 279.422 537.405 279.318L540.563 277.33C540.736 277.213 540.857 277.032 540.899 276.827C540.941 276.621 540.901 276.408 540.787 276.232Z" fill="#464A5F"/>
<path d="M535.08 280.183L533.06 277.306C532.94 277.14 532.76 277.028 532.559 276.99C532.358 276.953 532.15 276.994 531.978 277.105L528.989 279.157C528.819 279.274 528.702 279.452 528.66 279.653C528.618 279.855 528.655 280.064 528.764 280.239L530.616 283.085C530.73 283.256 530.907 283.377 531.108 283.422C531.31 283.467 531.521 283.432 531.698 283.325L534.856 281.345C534.951 281.287 535.033 281.21 535.096 281.118C535.16 281.027 535.203 280.923 535.224 280.814C535.246 280.704 535.244 280.592 535.219 280.483C535.194 280.375 535.147 280.272 535.08 280.183Z" fill="#464A5F"/>
<path d="M529.622 284.495L527.113 280.92C527.086 280.881 527.052 280.847 527.012 280.82C526.972 280.794 526.928 280.776 526.881 280.767C526.834 280.758 526.785 280.758 526.739 280.768C526.692 280.778 526.647 280.797 526.608 280.824L522.969 283.301C522.929 283.327 522.894 283.361 522.867 283.4C522.839 283.44 522.82 283.484 522.811 283.532C522.801 283.579 522.801 283.627 522.81 283.674C522.819 283.721 522.838 283.766 522.865 283.806L525.165 287.341C525.191 287.382 525.224 287.417 525.263 287.445C525.302 287.473 525.347 287.493 525.394 287.503C525.441 287.514 525.49 287.515 525.537 287.506C525.585 287.497 525.63 287.479 525.67 287.453L529.55 285.048C529.593 285.018 529.629 284.98 529.656 284.935C529.684 284.89 529.701 284.84 529.708 284.788C529.715 284.736 529.711 284.683 529.696 284.632C529.681 284.582 529.656 284.535 529.622 284.495Z" fill="#464A5F"/>
<path d="M524.572 287.974L522.063 284.391C522.005 284.313 521.92 284.261 521.824 284.244C521.729 284.228 521.631 284.249 521.55 284.303L517.879 286.772C517.8 286.828 517.746 286.912 517.726 287.008C517.707 287.103 517.724 287.202 517.775 287.285L520.083 290.819C520.136 290.9 520.218 290.958 520.313 290.979C520.407 291 520.506 290.983 520.588 290.931L524.46 288.527C524.508 288.502 524.55 288.467 524.583 288.424C524.616 288.381 524.638 288.331 524.649 288.277C524.66 288.224 524.659 288.169 524.645 288.117C524.632 288.064 524.607 288.015 524.572 287.974Z" fill="#464A5F"/>
<path d="M518.905 291.917L516.396 288.335C516.34 288.257 516.256 288.205 516.162 288.188C516.067 288.172 515.97 288.193 515.891 288.246L512.22 290.715C512.14 290.77 512.084 290.855 512.064 290.95C512.045 291.046 512.063 291.146 512.116 291.228L514.416 294.763C514.47 294.842 514.553 294.898 514.647 294.919C514.74 294.94 514.839 294.924 514.921 294.875L518.801 292.47C518.85 292.446 518.892 292.411 518.925 292.367C518.958 292.324 518.981 292.273 518.991 292.22C519.001 292.166 518.998 292.111 518.983 292.058C518.969 292.006 518.942 291.958 518.905 291.917Z" fill="#464A5F"/>
<path d="M513.43 295.708L510.946 292.134C510.919 292.094 510.885 292.06 510.845 292.033C510.805 292.007 510.76 291.989 510.713 291.98C510.666 291.971 510.618 291.971 510.571 291.981C510.524 291.991 510.48 292.01 510.441 292.037L506.77 294.514C506.69 294.568 506.634 294.651 506.614 294.745C506.595 294.84 506.613 294.938 506.665 295.019L508.966 298.554C509.018 298.635 509.101 298.692 509.195 298.713C509.29 298.734 509.389 298.717 509.471 298.666L513.35 296.261C513.396 296.234 513.435 296.196 513.465 296.152C513.495 296.107 513.514 296.057 513.522 296.004C513.529 295.951 513.525 295.897 513.509 295.846C513.494 295.795 513.467 295.748 513.43 295.708Z" fill="#464A5F"/>
<path d="M548.45 262.903L546.438 260.017C546.317 259.85 546.136 259.736 545.933 259.698C545.73 259.661 545.521 259.703 545.348 259.817L542.358 261.837C542.191 261.955 542.075 262.133 542.034 262.334C541.994 262.536 542.033 262.745 542.142 262.919L543.994 265.764C544.109 265.934 544.287 266.054 544.488 266.097C544.69 266.14 544.9 266.104 545.076 265.996L548.226 264.017C548.314 263.959 548.39 263.883 548.449 263.796C548.508 263.708 548.549 263.61 548.57 263.506C548.59 263.403 548.591 263.296 548.57 263.193C548.55 263.089 548.509 262.99 548.45 262.903Z" fill="#464A5F"/>
<path d="M542.743 266.854L540.723 263.977C540.604 263.81 540.425 263.696 540.224 263.657C540.022 263.618 539.814 263.658 539.641 263.768L536.651 265.788C536.484 265.906 536.368 266.085 536.327 266.286C536.287 266.487 536.326 266.696 536.435 266.87L538.286 269.715C538.401 269.885 538.576 270.004 538.776 270.049C538.975 270.094 539.185 270.061 539.361 269.956L542.519 267.968C542.607 267.91 542.683 267.835 542.742 267.747C542.801 267.66 542.842 267.561 542.863 267.458C542.883 267.354 542.884 267.248 542.863 267.144C542.843 267.04 542.802 266.942 542.743 266.854Z" fill="#464A5F"/>
<path d="M537.036 270.806L534.992 267.936C534.871 267.769 534.69 267.655 534.487 267.617C534.284 267.58 534.074 267.622 533.902 267.736L530.984 269.74C530.815 269.857 530.698 270.034 530.656 270.236C530.614 270.437 530.651 270.647 530.76 270.822L532.611 273.667C532.726 273.839 532.903 273.96 533.104 274.004C533.306 274.049 533.517 274.014 533.694 273.907L536.852 271.928C536.938 271.866 537.011 271.789 537.067 271.699C537.123 271.609 537.16 271.509 537.177 271.405C537.194 271.301 537.191 271.194 537.166 271.091C537.142 270.988 537.098 270.891 537.036 270.806Z" fill="#464A5F"/>
<path d="M531.321 274.757L529.301 271.879C529.18 271.714 529.001 271.601 528.8 271.564C528.599 271.527 528.391 271.568 528.219 271.679L525.229 273.691C525.061 273.809 524.945 273.987 524.905 274.189C524.865 274.39 524.903 274.599 525.013 274.773L526.864 277.618C526.979 277.788 527.154 277.907 527.354 277.952C527.553 277.997 527.763 277.963 527.938 277.859L531.097 275.879C531.186 275.821 531.262 275.745 531.322 275.657C531.382 275.569 531.423 275.469 531.444 275.365C531.465 275.26 531.465 275.153 531.444 275.048C531.423 274.944 531.381 274.845 531.321 274.757Z" fill="#464A5F"/>
<path d="M525.871 279.069L523.362 275.494C523.334 275.454 523.299 275.42 523.259 275.394C523.218 275.367 523.173 275.349 523.125 275.34C523.078 275.331 523.029 275.331 522.981 275.341C522.934 275.351 522.889 275.371 522.849 275.398L519.178 277.875C519.098 277.929 519.042 278.012 519.022 278.106C519.003 278.2 519.021 278.299 519.073 278.38L521.374 281.922C521.401 281.963 521.435 281.998 521.475 282.025C521.516 282.053 521.561 282.072 521.609 282.081C521.656 282.091 521.705 282.091 521.753 282.082C521.801 282.072 521.846 282.054 521.887 282.027L525.758 279.622C525.806 279.596 525.847 279.561 525.879 279.517C525.91 279.474 525.933 279.424 525.943 279.372C525.954 279.319 525.953 279.265 525.94 279.212C525.928 279.16 525.904 279.111 525.871 279.069Z" fill="#464A5F"/>
<path d="M520.813 282.572L518.304 278.997C518.277 278.957 518.243 278.923 518.203 278.897C518.163 278.87 518.118 278.852 518.071 278.843C518.024 278.834 517.976 278.835 517.929 278.844C517.883 278.854 517.838 278.873 517.799 278.901L514.152 281.369C514.071 281.425 514.016 281.509 513.996 281.605C513.977 281.7 513.995 281.8 514.048 281.882L516.348 285.417C516.402 285.497 516.484 285.553 516.578 285.573C516.672 285.594 516.77 285.578 516.853 285.529L520.733 283.125C520.777 283.096 520.815 283.058 520.844 283.014C520.873 282.969 520.892 282.919 520.899 282.866C520.907 282.814 520.903 282.76 520.888 282.71C520.873 282.659 520.847 282.612 520.813 282.572Z" fill="#464A5F"/>
<path d="M515.154 286.491L512.645 282.908C512.587 282.83 512.502 282.778 512.406 282.761C512.311 282.745 512.212 282.766 512.132 282.82L508.469 285.289C508.388 285.344 508.333 285.428 508.313 285.524C508.294 285.62 508.312 285.719 508.365 285.802L510.665 289.336C510.718 289.418 510.8 289.475 510.895 289.496C510.989 289.517 511.088 289.5 511.17 289.449L515.05 287.044C515.096 287.018 515.136 286.981 515.168 286.938C515.199 286.894 515.22 286.844 515.23 286.792C515.24 286.739 515.238 286.685 515.225 286.633C515.212 286.581 515.187 286.533 515.154 286.491Z" fill="#464A5F"/>
<path d="M509.671 290.282L507.162 286.708C507.135 286.668 507.1 286.633 507.059 286.607C507.019 286.58 506.973 286.562 506.926 286.553C506.878 286.544 506.829 286.545 506.782 286.555C506.734 286.565 506.689 286.584 506.649 286.611L502.986 289.088C502.946 289.114 502.911 289.148 502.884 289.187C502.857 289.227 502.838 289.272 502.828 289.319C502.818 289.366 502.818 289.414 502.827 289.461C502.837 289.509 502.855 289.553 502.882 289.593L505.183 293.136C505.208 293.176 505.242 293.211 505.282 293.238C505.321 293.265 505.366 293.284 505.413 293.294C505.46 293.304 505.509 293.304 505.556 293.295C505.603 293.285 505.648 293.267 505.687 293.24L509.567 290.835C509.613 290.808 509.652 290.771 509.682 290.728C509.713 290.684 509.733 290.635 509.743 290.582C509.753 290.53 509.752 290.476 509.739 290.425C509.727 290.373 509.704 290.325 509.671 290.282Z" fill="#464A5F"/>
<path d="M507.948 299.508L505.439 295.925C505.381 295.847 505.296 295.794 505.2 295.778C505.105 295.761 505.006 295.783 504.926 295.837L501.255 298.305C501.174 298.361 501.119 298.445 501.099 298.541C501.08 298.636 501.098 298.736 501.151 298.818L503.451 302.353C503.505 302.433 503.587 302.489 503.681 302.509C503.775 302.53 503.874 302.514 503.956 302.465L507.836 300.061C507.884 300.036 507.926 300.001 507.959 299.958C507.992 299.914 508.014 299.864 508.025 299.811C508.036 299.758 508.034 299.703 508.021 299.651C508.008 299.598 507.983 299.549 507.948 299.508Z" fill="#464A5F"/>
<path d="M502.465 303.299L499.956 299.724C499.929 299.684 499.894 299.649 499.854 299.623C499.813 299.596 499.768 299.578 499.72 299.569C499.672 299.56 499.623 299.561 499.576 299.571C499.528 299.581 499.483 299.6 499.443 299.628L495.772 302.104C495.692 302.158 495.637 302.241 495.617 302.335C495.598 302.43 495.616 302.528 495.668 302.609L497.969 306.144C497.995 306.185 498.029 306.221 498.069 306.249C498.109 306.277 498.154 306.297 498.202 306.307C498.249 306.318 498.299 306.319 498.347 306.31C498.395 306.301 498.441 306.283 498.482 306.256L502.353 303.852C502.401 303.827 502.443 303.792 502.476 303.748C502.509 303.705 502.532 303.655 502.542 303.602C502.553 303.549 502.552 303.494 502.539 303.441C502.525 303.389 502.5 303.34 502.465 303.299Z" fill="#464A5F"/>
<path d="M511.066 280.592L508.701 277.218C508.626 277.113 508.512 277.042 508.385 277.02C508.258 276.997 508.127 277.025 508.02 277.097L504.533 279.43C504.426 279.503 504.352 279.615 504.326 279.743C504.301 279.87 504.326 280.002 504.397 280.111L506.561 283.445C506.633 283.554 506.745 283.63 506.872 283.657C507 283.684 507.133 283.66 507.243 283.59L510.898 281.289C510.956 281.256 511.008 281.212 511.048 281.158C511.089 281.104 511.118 281.043 511.134 280.977C511.15 280.912 511.152 280.844 511.14 280.778C511.129 280.711 511.103 280.648 511.066 280.592Z" fill="#464A5F"/>
<path d="M505.583 284.383L503.219 281.017C503.182 280.963 503.136 280.918 503.082 280.882C503.028 280.847 502.968 280.823 502.905 280.811C502.841 280.799 502.776 280.8 502.713 280.813C502.65 280.826 502.59 280.852 502.537 280.888L499.075 283.229C498.968 283.301 498.894 283.412 498.868 283.538C498.843 283.664 498.868 283.795 498.938 283.902L501.103 287.236C501.175 287.345 501.286 287.421 501.413 287.449C501.54 287.478 501.673 287.456 501.784 287.389L505.447 285.088C505.503 285.051 505.55 285.003 505.587 284.948C505.624 284.892 505.65 284.83 505.662 284.764C505.675 284.699 505.675 284.631 505.661 284.566C505.647 284.5 505.621 284.438 505.583 284.383Z" fill="#464A5F"/>
<path d="M500.101 288.182L497.696 284.808C497.622 284.704 497.51 284.633 497.384 284.61C497.258 284.588 497.128 284.616 497.023 284.688L493.552 287.02C493.445 287.093 493.371 287.206 493.345 287.333C493.32 287.46 493.345 287.592 493.416 287.701L495.58 291.036C495.652 291.144 495.764 291.22 495.891 291.247C496.019 291.274 496.151 291.25 496.261 291.18L499.924 288.88C499.984 288.847 500.036 288.803 500.077 288.75C500.119 288.696 500.149 288.635 500.165 288.57C500.182 288.504 500.185 288.436 500.174 288.369C500.162 288.302 500.138 288.239 500.101 288.182Z" fill="#464A5F"/>
<path d="M494.698 292.086L492.189 288.503C492.132 288.425 492.046 288.372 491.951 288.356C491.855 288.34 491.757 288.361 491.676 288.415L488.005 290.883C487.926 290.94 487.872 291.025 487.854 291.121C487.836 291.216 487.856 291.315 487.909 291.396L490.21 294.931C490.262 295.012 490.345 295.07 490.439 295.091C490.534 295.112 490.633 295.095 490.715 295.043L494.594 292.639C494.641 292.612 494.681 292.576 494.712 292.532C494.743 292.489 494.764 292.439 494.774 292.386C494.784 292.334 494.783 292.28 494.769 292.228C494.756 292.176 494.732 292.127 494.698 292.086Z" fill="#464A5F"/>
<path d="M559.576 255.112L557.435 252.018C557.313 251.852 557.132 251.739 556.929 251.704C556.726 251.668 556.517 251.712 556.345 251.826L547.817 257.765C547.653 257.884 547.54 258.062 547.501 258.261C547.462 258.46 547.501 258.667 547.609 258.839L549.66 261.997C549.719 262.084 549.795 262.159 549.883 262.218C549.971 262.276 550.069 262.316 550.173 262.336C550.276 262.356 550.383 262.356 550.486 262.335C550.589 262.314 550.687 262.272 550.775 262.213L559.375 256.194C559.54 256.073 559.653 255.894 559.69 255.693C559.728 255.492 559.687 255.284 559.576 255.112Z" fill="#464A5F"/>
<path d="M504.173 293.961L501.511 290.202C501.484 290.162 501.449 290.127 501.408 290.101C501.367 290.075 501.322 290.057 501.274 290.049C501.226 290.04 501.177 290.042 501.129 290.053C501.082 290.064 501.038 290.085 500.998 290.114L491.845 296.526C491.766 296.581 491.712 296.665 491.694 296.759C491.676 296.853 491.696 296.951 491.749 297.031L494.257 300.894C494.284 300.936 494.319 300.972 494.36 301C494.401 301.028 494.447 301.047 494.496 301.057C494.544 301.067 494.594 301.067 494.643 301.057C494.692 301.047 494.738 301.027 494.778 300.998L504.084 294.482C504.165 294.424 504.219 294.337 504.235 294.24C504.252 294.142 504.229 294.042 504.173 293.961Z" fill="#464A5F"/>
<path d="M533.293 265.211L530.888 261.644C530.833 261.564 530.748 261.508 530.653 261.488C530.557 261.469 530.458 261.488 530.375 261.54L510.056 275.246C510.016 275.272 509.981 275.306 509.954 275.345C509.926 275.385 509.907 275.429 509.898 275.476C509.888 275.523 509.888 275.572 509.897 275.619C509.906 275.666 509.925 275.711 509.952 275.751L512.453 279.598C512.479 279.64 512.514 279.676 512.555 279.704C512.596 279.732 512.642 279.751 512.691 279.761C512.74 279.771 512.79 279.771 512.838 279.76C512.887 279.75 512.933 279.731 512.974 279.702L533.237 265.724C533.311 265.663 533.359 265.575 533.37 265.479C533.38 265.383 533.352 265.287 533.293 265.211Z" fill="#464A5F"/>
<path opacity="0.1" d="M533.389 252.964L522.584 237.262C522.285 236.826 521.826 236.526 521.307 236.427C520.787 236.328 520.249 236.438 519.811 236.733L490.049 256.715C489.83 256.863 489.642 257.053 489.497 257.274C489.351 257.495 489.25 257.742 489.2 258.002C489.151 258.262 489.152 258.529 489.206 258.788C489.259 259.047 489.364 259.293 489.512 259.512L500.526 275.663C500.674 275.882 500.864 276.07 501.085 276.215C501.306 276.361 501.554 276.461 501.814 276.51C502.074 276.56 502.341 276.557 502.6 276.502C502.859 276.447 503.105 276.342 503.323 276.192L532.876 255.745C533.093 255.597 533.278 255.407 533.421 255.186C533.564 254.966 533.663 254.72 533.71 254.461C533.758 254.203 533.754 253.937 533.699 253.681C533.644 253.424 533.539 253.18 533.389 252.964Z" fill="black"/>
<path d="M533.886 253.06L523.081 237.359C522.781 236.924 522.322 236.625 521.803 236.526C521.284 236.427 520.747 236.536 520.308 236.83L490.586 256.827C490.366 256.974 490.176 257.163 490.029 257.384C489.882 257.605 489.78 257.852 489.73 258.112C489.679 258.372 489.68 258.64 489.734 258.9C489.787 259.159 489.892 259.406 490.041 259.625L501.022 275.759C501.171 275.978 501.361 276.166 501.582 276.312C501.803 276.457 502.051 276.557 502.311 276.607C502.571 276.656 502.838 276.653 503.097 276.598C503.356 276.544 503.602 276.438 503.82 276.288L533.389 255.842C533.605 255.692 533.788 255.501 533.93 255.28C534.072 255.059 534.168 254.812 534.214 254.554C534.261 254.296 534.255 254.031 534.199 253.774C534.143 253.518 534.036 253.275 533.886 253.06Z" fill="#939498"/>
<path d="M600.888 278.436L577.963 270.79L504.437 321.862L527.193 329.276C527.807 329.476 528.458 329.531 529.097 329.436C529.735 329.342 530.343 329.1 530.872 328.731L601.096 279.903C601.233 279.822 601.342 279.703 601.411 279.56C601.48 279.417 601.505 279.257 601.482 279.1C601.46 278.943 601.391 278.796 601.286 278.678C601.18 278.559 601.041 278.475 600.888 278.436Z" fill="#FADE32"/>
</g>
<defs>
<clipPath id="clip0_71_47">
<rect width="869" height="608" fill="white" transform="translate(-152)"/>
</clipPath>
</defs>
</svg>
