<svg width="768" height="681" viewBox="0 0 768 681" fill="none" xmlns="http://www.w3.org/2000/svg">
<g clip-path="url(#clip0_71_222)">
<path d="M541.14 453.204C575.839 785.303 709.012 740.624 808.236 271.204C834.343 147.692 750.282 27.5589 626.28 4.04252C502.277 -19.4739 382.694 62.0105 359.184 186.043C335.673 310.076 528.021 327.646 541.14 453.204Z" fill="#F6F4E2"/>
<path d="M111.562 557.445C111.562 599.464 86.5883 614.136 55.7812 614.136C24.9741 614.136 3.05176e-05 599.464 3.05176e-05 557.445C3.05176e-05 515.425 55.7812 461.969 55.7812 461.969C55.7812 461.969 111.562 515.425 111.562 557.445Z" fill="#F6F4E2"/>
<path d="M53.749 607.708L54.3208 572.542L78.0959 529.036L54.4095 567.025L54.6671 551.212L71.053 519.736L54.735 547.028L55.1962 518.588L72.743 493.53L55.2693 514.117L55.5582 461.969L53.7438 531.003L53.8935 528.156L36.0534 500.842L53.6072 533.622L51.945 565.384L51.8954 564.541L31.3297 535.798L51.8327 567.519L51.6256 571.491L51.5882 571.551L51.6047 571.877L47.3875 652.46H53.0224L53.6985 610.838L74.1519 579.194L53.749 607.708Z" fill="#F6F4E2"/>
<path d="M111.562 557.445C111.562 599.464 86.5883 614.136 55.7812 614.136C24.9741 614.136 3.05176e-05 599.464 3.05176e-05 557.445C3.05176e-05 515.425 55.7812 461.969 55.7812 461.969C55.7812 461.969 111.562 515.425 111.562 557.445Z" fill="#F6F4E2"/>
<path d="M53.749 607.708L54.3208 572.542L78.0959 529.036L54.4095 567.025L54.6671 551.212L71.053 519.736L54.735 547.028L55.1962 518.588L72.743 493.53L55.2693 514.117L55.5582 461.969L53.7438 531.003L53.8935 528.156L36.0534 500.842L53.6072 533.622L51.945 565.384L51.8954 564.541L31.3297 535.798L51.8327 567.519L51.6256 571.491L51.5882 571.551L51.6047 571.877L47.3875 652.46H53.0224L53.6985 610.838L74.1519 579.194L53.749 607.708Z" fill="#3F3D56"/>
<path d="M406.576 681C629.585 681 810.37 669.114 810.37 654.451C810.37 639.788 629.585 627.902 406.576 627.902C183.566 627.902 2.78157 639.788 2.78157 654.451C2.78157 669.114 183.566 681 406.576 681Z" fill="#3F3D56"/>
<path opacity="0.1" d="M188.144 668.814C243.896 668.814 289.092 660.898 289.092 651.133C289.092 641.368 243.896 633.452 188.144 633.452C132.392 633.452 87.1954 641.368 87.1954 651.133C87.1954 660.898 132.392 668.814 188.144 668.814Z" fill="black"/>
<path opacity="0.1" d="M611.083 670.554C666.836 670.554 712.032 663.734 712.032 655.321C712.032 646.908 666.836 640.088 611.083 640.088C555.331 640.088 510.135 646.908 510.135 655.321C510.135 663.734 555.331 670.554 611.083 670.554Z" fill="black"/>
<path d="M205.412 337.648L235.292 338.797C235.292 338.797 261.724 351.442 261.724 361.788C261.724 372.133 230.695 350.292 230.695 350.292L205.412 349.143L205.412 337.648Z" fill="#FFB9B9"/>
<path opacity="0.1" d="M205.412 337.648L235.292 338.797C235.292 338.797 261.724 351.442 261.724 361.788C261.724 372.133 230.695 350.292 230.695 350.292L205.412 349.143L205.412 337.648Z" fill="black"/>
<path d="M206.561 328.452C206.561 328.452 212.307 342.246 211.158 349.143C210.009 356.04 166.337 353.741 166.337 353.741L173.233 333.05L206.561 328.452Z" fill="#FFB9B9"/>
<path d="M165.188 577.898L162.89 608.935L182.427 610.084L185.874 580.197L165.188 577.898Z" fill="#FFB9B9"/>
<path d="M165.188 346.844L160.591 358.339C160.591 358.339 150.248 368.685 152.547 393.974C154.845 419.264 155.994 420.413 155.994 420.413C155.994 420.413 146.8 580.197 154.845 581.346C162.89 582.496 207.71 604.336 212.307 579.047C216.904 553.758 219.203 451.45 219.203 451.45L166.337 356.04L165.188 346.844Z" fill="#2F2E41"/>
<path opacity="0.1" d="M165.188 346.844L160.591 358.339C160.591 358.339 150.248 368.685 152.547 393.974C154.845 419.264 155.994 420.413 155.994 420.413C155.994 420.413 146.8 580.197 154.845 581.346C162.89 582.496 207.71 604.336 212.307 579.047C216.904 553.758 219.203 451.45 219.203 451.45L166.337 356.04L165.188 346.844Z" fill="black"/>
<path d="M216.904 559.505L206.561 574.449L223.799 581.346L238.74 557.206L216.904 559.505Z" fill="#FFB9B9"/>
<path d="M206.561 239.938C221.159 239.938 232.993 228.101 232.993 213.5C232.993 198.898 221.159 187.061 206.561 187.061C191.963 187.061 180.128 198.898 180.128 213.5C180.128 228.101 191.963 239.938 206.561 239.938Z" fill="#FFB9B9"/>
<path d="M185.874 204.303C185.874 204.303 162.89 228.443 155.994 229.593C149.099 230.742 180.128 250.284 180.128 250.284V243.387C180.128 243.387 190.471 233.041 196.218 231.892C201.964 230.742 185.874 204.303 185.874 204.303Z" fill="#FFB9B9"/>
<path d="M167.487 341.096L160.591 358.339C160.591 358.339 146.8 392.825 166.337 411.217C185.875 429.609 242.187 487.085 239.889 499.73C237.59 512.375 203.525 557.07 214.237 562.886C224.949 568.701 342.171 548.01 343.32 534.216C343.751 529.043 339.496 519.02 334.008 508.513C323.647 488.819 310.896 470.479 296.044 453.909L218.053 366.386C218.053 366.386 210.009 349.143 212.307 345.694C212.307 345.694 203.113 336.498 175.531 343.395L167.487 341.096Z" fill="#2F2E41"/>
<path d="M161.74 605.486C161.74 605.486 155.994 623.878 153.696 625.028C151.397 626.177 149.099 638.822 151.397 641.121C153.696 643.42 154.845 653.766 154.845 653.766H157.143L158.293 642.271C158.293 642.271 182.102 656.649 185.875 658.364C192.195 661.238 220.352 660.663 219.202 654.915C218.053 649.168 184.725 630.775 185.875 626.177C187.024 621.579 183.576 607.785 183.576 607.785L161.74 605.486Z" fill="#2F2E41"/>
<path d="M227.247 580.197L204.262 571C204.262 571 198.516 580.197 191.621 580.197C184.725 580.197 179.365 588.557 179.747 588.975C180.128 589.393 169.785 603.187 169.785 603.187L171.642 606.529L184.725 598.589L188.392 613.993C190.41 622.691 194.383 630.815 200.009 637.748C204.518 643.236 210.136 647.891 215.755 646.869C215.755 646.869 218.053 646.869 215.755 630.776C213.456 614.682 218.053 597.439 218.053 597.439L227.247 580.197Z" fill="#2F2E41"/>
<path d="M167.487 228.443C167.487 228.443 169.785 234.191 172.084 235.34C174.382 236.49 181.278 241.088 182.427 245.686C183.576 250.284 189.322 264.078 189.322 264.078C189.322 264.078 201.964 270.975 200.815 283.62C199.665 296.265 198.516 306.611 200.815 307.76C203.113 308.91 205.412 308.91 204.262 312.358C203.113 315.807 206.561 319.255 207.71 320.405C208.859 321.554 211.158 319.255 208.859 322.704C206.561 326.152 207.71 327.302 208.859 328.452C210.009 329.601 211.158 329.601 210.009 331.9C208.859 334.199 166.337 349.143 164.039 349.143C161.74 349.143 161.74 346.844 162.89 343.395C164.039 339.947 168.636 336.498 164.039 335.349C159.442 334.199 158.293 334.199 158.293 328.451C158.293 322.704 138.756 288.218 138.756 288.218C138.756 288.218 130.711 261.779 138.756 250.284C146.8 238.789 152.547 230.742 157.143 228.443C161.74 226.144 167.487 228.443 167.487 228.443Z" fill="#FADE32"/>
<path d="M129.562 282.471L115.771 320.405L88.1891 402.021C88.1891 402.021 59.4581 442.254 78.9951 439.955C98.5322 437.656 100.831 402.021 100.831 402.021L127.263 338.797L151.397 290.518L129.562 282.471Z" fill="#FFB9B9"/>
<path d="M143.353 249.135L138.756 250.284C138.756 250.284 122.666 282.471 126.114 285.919C129.562 289.368 147.95 298.564 151.397 297.415C154.845 296.265 159.442 262.929 159.442 262.929L143.353 249.135Z" fill="#FADE32"/>
<path d="M144.707 203.462C153.623 199.541 164.413 190.956 174.659 183.871C177.979 181.575 181.213 179.166 184.43 176.727C190.914 171.812 206.518 170.107 219.986 178.744C235.379 188.617 242.891 204.368 238.724 210.869C235.278 216.244 223.841 215.301 211.283 209.236C209.517 221.004 205.48 232.731 201.07 239.611C191.09 255.179 182.694 240.502 167.13 230.52C151.566 220.538 127.782 210.906 144.707 203.462Z" fill="#2F2E41"/>
<path d="M353.491 467.738C382.809 467.738 406.576 443.965 406.576 414.64C406.576 385.315 382.809 361.542 353.491 361.542C324.173 361.542 300.406 385.315 300.406 414.64C300.406 443.965 324.173 467.738 353.491 467.738Z" fill="#FADE32"/>
<path d="M611.083 137.834V235.942L615.435 233.585V244.901L620.656 258.828C620.656 258.828 625.878 258.828 625.878 261.439C625.878 264.051 620.656 268.403 620.656 268.403H611.083V314.688L617.175 300.61H628.488L636.321 316.278C636.321 316.278 631.099 318.019 631.099 321.501C631.099 324.983 637.191 331.946 636.321 336.299C635.45 340.651 631.969 347.615 629.359 350.226L618.045 361.542H611.083V665.332H661.558V137.834H611.083Z" fill="#3F3D56"/>
<path d="M582.365 365.894L595.419 358.931C595.419 358.931 598.9 371.988 595.419 374.599C591.938 377.21 575.403 384.174 575.403 384.174L585.846 394.619H569.312L582.365 365.894Z" fill="#3F3D56"/>
<path d="M549.844 657.434L554.014 659.725C554.014 659.725 548.452 662.474 547.002 661.971C545.553 661.469 541.102 658.3 541.102 658.3L537.271 662.429L535.936 658.262L549.844 657.434Z" fill="#3F3D56"/>
<path d="M561.933 651.808C561.933 651.808 547.85 642.969 560.13 645.082C567.665 646.356 575.325 646.721 582.947 646.171L584.75 652.897L561.933 651.808Z" fill="#3F3D56"/>
<path d="M579.709 665.128C579.709 665.128 566.64 662.205 576.779 660.552C583.024 659.51 589.131 657.764 594.982 655.348L597.911 659.924L579.709 665.128Z" fill="#3F3D56"/>
<path d="M583.235 432.049V426.826H597.159V443.365L583.235 432.049Z" fill="#3F3D56"/>
</g>
<defs>
<clipPath id="clip0_71_222">
<rect width="813" height="681" fill="white"/>
</clipPath>
</defs>
</svg>
