<svg width="793" height="745" viewBox="0 0 793 745" fill="none" xmlns="http://www.w3.org/2000/svg">
<g filter="url(#filter0_d_71_8)">
<path d="M404.843 735.916C358.855 729.563 312.905 675.841 260.997 650.918C209.343 625.68 152.382 629.728 99.9693 605.433C47.3041 581.452 -0.812537 529.127 4.4221 481.131C9.65673 433.135 67.9178 389.224 118.562 356.727C168.882 323.985 211.837 302.344 249.667 309.116C287.821 316.133 321.175 351.807 382.576 352.611C444.049 353.973 533.895 320.708 583.203 339.139C632.836 357.815 642.256 428.43 628.864 490.458C615.471 552.486 579.518 605.613 538.15 653.155C497.035 700.382 450.83 742.269 404.843 735.916Z" fill="#F6F4E2"/>
<path d="M728.515 395.9C709.196 444.668 604.995 504.592 470.648 540.107C312.586 581.902 172.658 574.087 158.109 522.652C143.561 471.223 286.342 539.156 444.411 497.361C530.724 474.536 603.738 423.719 654.617 390.663C696.911 363.17 723.91 347.952 730.512 371.304C732.696 379.021 731.927 387.287 728.515 395.9Z" fill="#3F3D56"/>
<path opacity="0.1" d="M339.997 532.657C379.674 532.657 411.84 529.548 411.84 525.711C411.84 521.875 379.674 518.765 339.997 518.765C300.319 518.765 268.154 521.875 268.154 525.711C268.154 529.548 300.319 532.657 339.997 532.657Z" fill="black"/>
<path opacity="0.1" d="M206.009 526.406C224.062 526.406 238.698 523.296 238.698 519.46C238.698 515.624 224.062 512.514 206.009 512.514C187.956 512.514 173.32 515.624 173.32 519.46C173.32 523.296 187.956 526.406 206.009 526.406Z" fill="black"/>
<path d="M502.799 318.431C499.925 318.431 497.034 318.341 494.188 318.166L494.279 316.779C497.098 316.953 499.962 317.041 502.791 317.041L502.876 317.041V318.43L502.809 318.431L502.799 318.431ZM511.568 318.154L511.474 316.768C514.324 316.588 517.204 316.316 520.033 315.958L520.22 317.335C517.36 317.697 514.449 317.973 511.568 318.154ZM485.534 317.358C482.669 316.999 479.782 316.543 476.953 316.004L477.231 314.641C480.029 315.175 482.885 315.625 485.719 315.98L485.534 317.358ZM528.799 315.97L528.52 314.608C531.319 314.071 534.138 313.437 536.896 312.723L537.267 314.065C534.479 314.787 531.63 315.428 528.799 315.97ZM468.483 314.108C465.699 313.391 462.898 312.574 460.159 311.678L460.619 310.362C463.329 311.248 466.099 312.057 468.852 312.766L468.483 314.108ZM545.588 311.624L545.126 310.308C547.821 309.422 550.523 308.437 553.159 307.379L553.711 308.663C551.045 309.732 548.313 310.728 545.588 311.624ZM452.006 308.716C449.34 307.65 446.672 306.482 444.076 305.244L444.712 303.998C447.279 305.222 449.918 306.378 452.556 307.433L452.006 308.716ZM561.618 305.19L560.981 303.945C563.541 302.721 566.089 301.401 568.555 300.021L569.275 301.223C566.781 302.619 564.206 303.954 561.618 305.19V305.19ZM436.401 301.276C433.9 299.879 431.414 298.383 429.013 296.831L429.811 295.676C432.187 297.212 434.646 298.691 437.119 300.072L436.401 301.276ZM576.648 296.779L575.849 295.625C578.217 294.092 580.567 292.462 582.833 290.777L583.709 291.879C581.418 293.581 579.042 295.23 576.648 296.779V296.779ZM421.942 291.93C419.653 290.231 417.391 288.436 415.218 286.595L416.165 285.551C418.314 287.372 420.553 289.147 422.817 290.828L421.942 291.93ZM590.426 286.543L589.478 285.499C591.623 283.678 593.735 281.765 595.755 279.813L596.771 280.795C594.729 282.769 592.595 284.702 590.426 286.543V286.543ZM408.869 280.85C406.825 278.877 404.824 276.815 402.919 274.72L403.998 273.802C405.883 275.875 407.862 277.916 409.884 279.867L408.869 280.85ZM602.718 274.66L601.637 273.743C603.522 271.667 605.36 269.505 607.1 267.316L608.239 268.162C606.48 270.375 604.622 272.561 602.718 274.66V274.66ZM397.396 268.229C395.637 266.018 393.93 263.722 392.323 261.406L393.516 260.632C395.105 262.924 396.794 265.195 398.535 267.381L397.396 268.229ZM613.313 261.329L612.119 260.556C613.709 258.259 615.24 255.883 616.671 253.493L617.914 254.189C616.468 256.605 614.92 259.007 613.313 261.329V261.329ZM387.722 254.28C386.274 251.865 384.892 249.375 383.614 246.879L384.901 246.263C386.165 248.731 387.533 251.194 388.965 253.583L387.722 254.28ZM622.023 246.771L620.735 246.155C622 243.68 623.197 241.129 624.293 238.574L625.62 239.106C624.513 241.689 623.302 244.268 622.023 246.771V246.771ZM380.017 239.236C378.91 236.662 377.878 234.02 376.949 231.384L378.309 230.937C379.228 233.544 380.249 236.157 381.344 238.703L380.017 239.236ZM628.689 231.226L627.328 230.78C628.245 228.164 629.083 225.487 629.82 222.821L631.208 223.18C630.463 225.874 629.616 228.582 628.689 231.226V231.226ZM374.418 223.342C373.67 220.647 373.005 217.893 372.441 215.156L373.85 214.885C374.407 217.592 375.065 220.316 375.806 222.982L374.418 223.342ZM633.174 214.991L631.764 214.721C632.318 212.014 632.786 209.253 633.155 206.516L634.579 206.695C634.206 209.463 633.733 212.254 633.174 214.991ZM371.025 206.863C370.649 204.103 370.362 201.289 370.171 198.498L371.605 198.407C371.794 201.167 372.078 203.951 372.449 206.682L371.025 206.863ZM635.422 198.329L633.988 198.24C634.171 195.495 634.264 192.699 634.264 189.929L634.263 189.599H635.7L635.701 189.925C635.701 192.728 635.607 195.555 635.422 198.329V198.329ZM371.318 190.095H369.881L369.881 189.925C369.881 187.187 369.971 184.417 370.149 181.695L371.584 181.783C371.407 184.476 371.318 187.217 371.318 189.929L371.318 190.095ZM633.965 181.289C633.774 178.533 633.487 175.749 633.111 173.015L634.535 172.832C634.915 175.596 635.206 178.41 635.399 181.196L633.965 181.289ZM372.405 173.505L370.98 173.328C371.349 170.56 371.819 167.768 372.374 165.03L373.784 165.298C373.234 168.006 372.77 170.768 372.405 173.505ZM631.698 164.813C631.137 162.107 630.475 159.384 629.731 156.718L631.119 156.356C631.871 159.052 632.539 161.805 633.106 164.54L631.698 164.813ZM375.718 157.196L374.33 156.839C375.071 154.14 375.915 151.432 376.839 148.79L378.2 149.234C377.287 151.847 376.452 154.526 375.718 157.196ZM627.217 148.766C626.295 146.158 625.27 143.546 624.172 141.004L625.498 140.469C626.608 143.039 627.644 145.679 628.577 148.317L627.217 148.766ZM381.223 141.437L379.895 140.906C380.998 138.325 382.205 135.745 383.482 133.237L384.771 133.851C383.508 136.331 382.314 138.884 381.223 141.437ZM620.605 133.449C619.34 130.986 617.97 128.525 616.532 126.133L617.774 125.435C619.228 127.853 620.613 130.341 621.891 132.831L620.605 133.449ZM388.826 126.507L387.582 125.813C389.024 123.396 390.569 120.991 392.174 118.667L393.369 119.438C391.781 121.738 390.253 124.116 388.826 126.507V126.507ZM611.971 119.089C610.377 116.797 608.685 114.529 606.943 112.346L608.081 111.498C609.842 113.704 611.552 115.997 613.164 118.314L611.971 119.089ZM398.379 112.673L397.238 111.828C398.995 109.612 400.85 107.423 402.752 105.323L403.833 106.238C401.952 108.316 400.117 110.481 398.379 112.673V112.673ZM601.471 105.932C599.586 103.864 597.604 101.826 595.577 99.8745L596.592 98.8902C598.639 100.862 600.644 102.923 602.548 105.014L601.471 105.932ZM409.707 100.161L408.69 99.1802C410.729 97.2043 412.861 95.2676 415.027 93.4246L415.976 94.4672C413.833 96.2909 411.724 98.2065 409.707 100.161V100.161ZM589.288 94.1993C587.136 92.3797 584.896 90.6069 582.63 88.9301L583.503 87.8271C585.794 89.5219 588.058 91.314 590.234 93.1533L589.288 94.1993ZM422.613 89.1807L421.736 88.0804C424.022 86.3778 426.395 84.7261 428.79 83.1711L429.592 84.3242C427.222 85.8627 424.874 87.4967 422.613 89.1807V89.1807ZM575.629 84.0905C573.252 82.5582 570.791 81.0822 568.315 79.7031L569.032 78.4991C571.535 79.8934 574.023 81.3857 576.426 82.9347L575.629 84.0905ZM436.88 79.9188L436.159 78.7175C438.651 77.3185 441.225 75.9805 443.81 74.7408L444.448 75.9856C441.892 77.2116 439.346 78.5351 436.88 79.9188ZM560.717 75.7872C558.15 74.5672 555.51 73.4151 552.869 72.362L553.416 71.0779C556.087 72.1422 558.756 73.3072 561.351 74.5404L560.717 75.7872ZM452.266 72.5414L451.713 71.259C454.375 70.1869 457.107 69.1871 459.832 68.2876L460.296 69.6022C457.601 70.4922 454.899 71.4811 452.266 72.5414ZM544.801 69.4434C542.096 68.562 539.324 67.7564 536.565 67.0493L536.933 65.7062C539.723 66.4212 542.524 67.2355 545.26 68.1268L544.801 69.4434ZM468.523 67.1771L468.149 65.8354C470.935 65.1103 473.783 64.4655 476.614 63.9185L476.896 65.2805C474.095 65.8219 471.278 66.4598 468.523 67.1772V67.1771ZM528.183 65.1853C525.385 64.6558 522.529 64.2091 519.694 63.8571L519.876 62.4794C522.742 62.8349 525.63 63.2866 528.46 63.8218L528.183 65.1853ZM485.38 63.9208L485.192 62.5438C488.046 62.1789 490.956 61.8994 493.843 61.7136L493.938 63.0997C491.083 63.2836 488.203 63.56 485.38 63.9209V63.9208ZM511.132 63.0679C508.374 62.901 505.568 62.8162 502.791 62.8162L502.535 62.8166V61.4273L502.788 61.427C505.598 61.427 508.435 61.5125 511.222 61.6814L511.132 63.0679Z" fill="#3F3D56"/>
<path d="M502.845 279.533L502.843 278.144C505.65 278.142 508.483 278.016 511.261 277.769L511.393 279.152C508.571 279.403 505.695 279.532 502.845 279.533ZM494.298 279.162C491.463 278.913 488.61 278.534 485.82 278.034L486.081 276.668C488.828 277.16 491.636 277.533 494.428 277.778L494.298 279.162ZM519.869 278.015L519.606 276.65C522.359 276.154 525.118 275.527 527.808 274.788L528.201 276.124C525.468 276.876 522.665 277.512 519.869 278.015ZM477.486 276.152C474.752 275.404 472.021 274.521 469.369 273.529L469.887 272.234C472.498 273.21 475.186 274.079 477.878 274.816L477.486 276.152ZM536.314 273.491L535.795 272.196C538.4 271.219 540.992 270.11 543.498 268.9L544.14 270.143C541.594 271.372 538.961 272.499 536.314 273.491V273.491ZM461.537 270.188C458.993 268.963 456.476 267.608 454.059 266.16L454.815 264.979C457.196 266.404 459.672 267.739 462.178 268.945L461.537 270.188ZM551.611 266.108L550.853 264.928C553.227 263.502 555.564 261.95 557.799 260.316L558.666 261.423C556.396 263.084 554.023 264.66 551.611 266.108V266.108ZM446.998 261.483C444.731 259.829 442.515 258.05 440.411 256.198L441.378 255.171C443.45 256.995 445.632 258.745 447.863 260.374L446.998 261.483ZM565.246 256.131L564.277 255.105C566.344 253.283 568.348 251.344 570.235 249.343L571.297 250.279C569.38 252.311 567.344 254.28 565.246 256.131V256.131ZM434.354 250.351C432.434 248.32 430.592 246.181 428.877 243.993L430.023 243.154C431.711 245.308 433.524 247.415 435.415 249.415L434.354 250.351ZM576.767 243.914L575.621 243.077C577.31 240.916 578.914 238.655 580.388 236.357L581.609 237.089C580.112 239.423 578.483 241.72 576.767 243.914V243.914ZM424.028 237.174C422.527 234.84 421.121 232.411 419.849 229.953L421.135 229.332C422.386 231.751 423.77 234.143 425.248 236.441L424.028 237.174ZM585.778 229.862L584.493 229.241C585.741 226.823 586.888 224.315 587.899 221.789L589.239 222.291C588.211 224.857 587.047 227.404 585.778 229.862V229.862ZM416.382 222.389C415.353 219.829 414.435 217.19 413.655 214.546L415.036 214.164C415.805 216.767 416.708 219.365 417.721 221.886L416.382 222.389ZM591.957 214.445L590.575 214.065C591.339 211.462 591.985 208.793 592.496 206.135L593.909 206.388C593.389 209.089 592.733 211.8 591.957 214.445ZM411.693 206.492C411.172 203.796 410.775 201.039 410.512 198.297L411.943 198.169C412.202 200.868 412.593 203.582 413.106 206.236L411.693 206.492ZM595.08 198.193L593.649 198.066C593.903 195.38 594.032 192.642 594.032 189.929L594.031 189.722H595.468L595.469 189.922C595.469 192.685 595.338 195.465 595.08 198.193ZM411.55 190.032H410.113V189.929C410.113 187.21 410.241 184.465 410.493 181.769L411.924 181.894C411.676 184.548 411.55 187.252 411.55 189.929V190.032ZM593.629 181.587C593.366 178.886 592.972 176.172 592.456 173.521L593.868 173.264C594.392 175.957 594.793 178.713 595.059 181.457L593.629 181.587ZM413.067 173.824L411.654 173.572C412.169 170.871 412.823 168.16 413.595 165.514L414.978 165.892C414.217 168.496 413.574 171.165 413.067 173.824ZM590.517 165.595C589.746 162.994 588.84 160.397 587.823 157.877L589.162 157.372C590.194 159.932 591.116 162.57 591.898 165.212L590.517 165.595ZM417.644 158.165L416.304 157.664C417.327 155.102 418.488 152.553 419.755 150.09L421.041 150.708C419.795 153.133 418.652 155.642 417.644 158.165ZM584.399 150.435C583.148 148.021 581.76 145.63 580.278 143.331L581.497 142.596C583.004 144.932 584.412 147.36 585.683 149.812L584.399 150.435ZM425.139 143.588L423.917 142.858C425.412 140.521 427.038 138.223 428.751 136.027L429.898 136.864C428.212 139.026 426.61 141.288 425.139 143.588ZM575.496 136.623C573.803 134.469 571.987 132.365 570.096 130.368L571.155 129.43C573.075 131.458 574.921 133.595 576.64 135.783L575.496 136.623ZM435.276 130.591L434.213 129.656C436.126 127.623 438.159 125.652 440.257 123.797L441.226 124.822C439.161 126.648 437.159 128.589 435.276 130.591ZM564.125 124.618C562.052 122.798 559.868 121.049 557.634 119.422L558.498 118.313C560.767 119.965 562.986 121.741 565.091 123.59L564.125 124.618ZM447.699 119.605L446.831 118.498C449.096 116.837 451.467 115.258 453.88 113.805L454.639 114.985C452.264 116.415 449.929 117.969 447.699 119.605V119.605ZM550.676 114.825C548.296 113.403 545.817 112.072 543.31 110.868L543.948 109.624C546.496 110.847 549.014 112.199 551.431 113.644L550.676 114.825ZM461.99 111.004L461.346 109.762C463.888 108.532 466.519 107.402 469.167 106.405L469.689 107.699C467.082 108.681 464.492 109.793 461.99 111.004V111.004ZM535.596 107.588C532.983 106.614 530.294 105.749 527.602 105.015L527.992 103.678C530.727 104.423 533.459 105.303 536.112 106.291L535.596 107.588ZM477.673 105.099L477.279 103.764C480.012 103.008 482.814 102.369 485.607 101.863L485.872 103.228C483.123 103.726 480.364 104.356 477.673 105.099V105.099ZM519.397 103.171C516.648 102.683 513.84 102.313 511.049 102.071L511.177 100.687C514.012 100.933 516.865 101.309 519.656 101.805L519.397 103.171ZM494.216 102.099L494.082 100.716C496.904 100.461 499.78 100.33 502.629 100.325L502.632 101.715C499.826 101.719 496.995 101.849 494.216 102.099V102.099Z" fill="#3F3D56"/>
<path d="M515.371 372.247C511.233 370.941 506.072 368.64 502.827 366.118L505.28 371.94C421.701 373.059 346.624 319.924 322.502 242.295C298.463 164.935 330.568 80.7487 400.594 37.0469L401.887 43.2085C403.143 39.3707 406.123 34.6909 408.819 31.3882C404.548 32.192 398.88 32.6059 394.777 31.9255L399.846 35.86C365.932 57.1544 339.884 88.3054 325.451 124.827C310.609 162.632 309.104 204.118 321.17 242.835C333.236 281.552 358.197 315.329 392.17 338.913C424.449 361.22 463.11 373.258 502.787 373.355C503.636 373.355 504.487 373.34 505.338 373.328L503.371 379.32C506.398 376.556 511.354 373.865 515.371 372.247Z" fill="#3F3D56"/>
<path d="M684.416 137.169C673.046 100.576 650.14 68.3288 618.897 44.9304C587.655 21.532 549.635 8.15013 510.146 6.65315L512.437 0.775635C509.262 3.38049 504.166 5.81275 500.066 7.22256C504.125 8.73875 509.153 11.3013 512.255 13.9869L510.123 8.04309C549.166 9.53045 586.762 22.7239 617.702 45.7946C648.642 68.8653 671.392 100.671 682.799 136.802C694.207 172.933 693.706 211.6 681.366 247.443C669.026 283.287 645.459 314.531 613.931 336.845L612.266 330.763C611.244 334.666 608.554 339.507 606.063 342.957C610.278 341.912 615.911 341.177 620.049 341.623L614.753 337.985C646.412 315.582 670.11 284.242 682.586 248.279C695.062 212.316 695.701 173.498 684.416 137.169V137.169Z" fill="#3F3D56"/>
<path opacity="0.1" d="M728.515 395.9C723.565 396.116 718.478 396.227 713.291 396.227C690.862 396.227 670.358 394.129 654.617 390.663C696.911 363.17 723.91 347.952 730.512 371.304C732.696 379.021 731.927 387.287 728.515 395.9Z" fill="black"/>
<path d="M315.375 32.2537C295.462 32.2537 280.965 45.3263 276.078 63.9903L270.019 91.9897H274.33L283.67 69.0677L281.703 91.9897H286.543L290.135 80.1814L289.379 91.9897H347.61V63.4194C347.61 59.3266 346.776 55.274 345.156 51.4928C343.536 47.7116 341.162 44.2759 338.169 41.3819C335.175 38.4879 331.622 36.1922 327.711 34.626C323.8 33.0598 319.608 32.2537 315.375 32.2537V32.2537Z" fill="#2C2A2B"/>
<path d="M277.922 241.372L291.573 305.153L366.289 306.216L347.61 239.246L277.922 241.372Z" fill="#3F3D56"/>
<path opacity="0.1" d="M277.922 241.372L291.573 305.153L366.289 306.216L347.61 239.246L277.922 241.372Z" fill="black"/>
<path d="M289.058 191.666C289.058 191.666 259.602 231.258 261.039 247.234C262.476 263.21 281.155 523.687 281.155 523.687L324.979 525.771L312.048 338.227L322.824 287.521L349.406 523.687L403.288 525.076L355.154 218.755L345.814 191.666H289.058Z" fill="#2C2A2B"/>
<path d="M299.116 70.8042C299.116 70.8042 308.455 87.4747 296.242 98.5884C284.029 109.702 278.281 139.57 278.281 139.57L347.25 134.708L341.503 97.1992C341.503 97.1992 326.416 88.1693 330.008 72.1934L299.116 70.8042Z" fill="#A0616A"/>
<path opacity="0.1" d="M299.116 70.8042C299.116 70.8042 308.455 87.4747 296.242 98.5884C284.029 109.702 278.281 139.57 278.281 139.57L347.25 134.708L341.503 97.1992C341.503 97.1992 326.416 88.1693 330.008 72.1934L299.116 70.8042Z" fill="black"/>
<path d="M287.621 115.259C287.621 115.259 291.931 127.762 310.611 126.373C321.983 125.455 332.896 121.618 342.222 115.259V196.528L284.747 194.444V145.127L287.621 115.259Z" fill="#FADE32"/>
<path d="M301.015 91.9607L295.524 95.8101L262.476 111.091L273.971 168.744L281.873 181.247V196.528L262.476 222.923C258.116 241.628 255.709 260.71 255.292 279.88C254.573 311.832 263.194 303.497 267.505 302.802C271.815 302.108 281.155 300.024 281.155 300.024L266.068 231.953L291.213 196.528L295.524 182.636C295.524 182.636 294.087 149.989 288.339 136.792C288.339 136.792 299.321 102.003 301.015 91.9607Z" fill="#3F3D56"/>
<path d="M331.221 85.3911L344.377 97.894L370.241 105.535L358.027 170.828L350.843 184.72L352.28 198.612C352.28 198.612 379.201 226.529 383.172 281.964C385.258 311.078 380.947 309.689 380.947 309.689L327.853 309.054L319.232 193.75L335.756 106.924L331.221 85.3911Z" fill="#3F3D56"/>
<path d="M385.327 252.096C385.327 252.096 392.512 281.964 378.143 285.437C363.774 288.91 368.803 252.096 368.803 252.096H385.327Z" fill="#A0616A"/>
<path d="M258.604 221.095C258.604 221.095 286.269 236.093 279.239 248.697C272.209 261.3 247.468 232.897 247.468 232.897L258.604 221.095Z" fill="#A0616A"/>
<path d="M359.464 106.924L370.24 105.534C370.24 105.534 376.706 113.87 377.425 120.121C378.143 126.373 389.638 231.953 389.638 231.953L401.133 252.096C401.133 252.096 400.415 255.569 394.667 255.569H388.92L386.764 263.904C386.764 263.904 382.454 247.928 365.93 256.264L359.464 254.18L363.775 246.539C363.775 246.539 359.464 209.725 359.464 192.36C359.464 174.995 358.027 156.241 358.027 156.241L359.464 106.924Z" fill="#3F3D56"/>
<path d="M307.418 528.437C313.06 528.437 317.634 526.779 317.634 524.733C317.634 522.688 313.06 521.03 307.418 521.03C301.776 521.03 297.202 522.688 297.202 524.733C297.202 526.779 301.776 528.437 307.418 528.437Z" fill="#2C2A2B"/>
<path d="M376.375 528.437C382.017 528.437 386.591 526.779 386.591 524.733C386.591 522.688 382.017 521.03 376.375 521.03C370.733 521.03 366.159 522.688 366.159 524.733C366.159 526.779 370.733 528.437 376.375 528.437Z" fill="#2C2A2B"/>
<path d="M270.379 110.397L262.476 111.092L244.515 178.468C244.515 178.468 237.331 222.923 238.768 225.007C240.205 227.091 238.768 230.564 237.331 231.953C235.894 233.342 243.078 252.791 250.263 252.096C257.447 251.402 260.321 249.318 260.321 249.318C260.321 249.318 253.855 231.258 270.379 225.007L274.689 211.115L270.379 188.193L276.126 156.241L270.379 110.397Z" fill="#3F3D56"/>
<path d="M339.348 67.6787C339.943 67.6787 340.426 66.1238 340.426 64.2057C340.426 62.2876 339.943 60.7327 339.348 60.7327C338.753 60.7327 338.27 62.2876 338.27 64.2057C338.27 66.1238 338.753 67.6787 339.348 67.6787Z" fill="#A0616A"/>
<path d="M290.495 67.6787C291.09 67.6787 291.572 66.1238 291.572 64.2057C291.572 62.2876 291.09 60.7327 290.495 60.7327C289.9 60.7327 289.417 62.2876 289.417 64.2057C289.417 66.1238 289.9 67.6787 290.495 67.6787Z" fill="#A0616A"/>
<path d="M314.921 85.391C328.015 85.391 338.629 75.1285 338.629 62.4691C338.629 49.8096 328.015 39.5471 314.921 39.5471C301.828 39.5471 291.213 49.8096 291.213 62.4691C291.213 75.1285 301.828 85.391 314.921 85.391Z" fill="#A0616A"/>
<path d="M304.504 50.3135L303.899 55.8704H320.31L322.465 51.7027L322.011 55.8704H341.863L328.213 35.0322L298.038 35.7268L290.854 55.8704H301.631L304.504 50.3135Z" fill="#2C2A2B"/>
<path d="M713.291 373.305C754.953 373.305 788.726 340.651 788.726 300.371C788.726 260.091 754.953 227.438 713.291 227.438C671.629 227.438 637.856 260.091 637.856 300.371C637.856 340.651 671.629 373.305 713.291 373.305Z" fill="#3F3D56"/>
<path d="M718.32 233.689C749.269 233.689 774.358 209.432 774.358 179.51C774.358 149.588 749.269 125.331 718.32 125.331C687.371 125.331 662.283 149.588 662.283 179.51C662.283 209.432 687.371 233.689 718.32 233.689Z" fill="#3F3D56"/>
<path d="M718.32 128.804C744.904 128.804 766.455 107.968 766.455 82.2653C766.455 56.5628 744.904 35.7268 718.32 35.7268C691.736 35.7268 670.185 56.5628 670.185 82.2653C670.185 107.968 691.736 128.804 718.32 128.804Z" fill="#3F3D56"/>
<path d="M719.039 42.6727C729.355 42.6727 737.718 34.5871 737.718 24.613C737.718 14.6388 729.355 6.55322 719.039 6.55322C708.722 6.55322 700.359 14.6388 700.359 24.613C700.359 34.5871 708.722 42.6727 719.039 42.6727Z" fill="#FADE32"/>
<path d="M203.504 491.609C208.322 508.828 224.825 519.493 224.825 519.493C224.825 519.493 233.516 502.239 228.698 485.019C223.88 467.8 207.378 457.135 207.378 457.135C207.378 457.135 198.686 474.389 203.504 491.609Z" fill="#3F3D56"/>
<path d="M210.584 487.908C223.805 500.351 225.42 519.479 225.42 519.479C225.42 519.479 205.599 518.433 192.379 505.99C179.158 493.547 177.543 474.419 177.543 474.419C177.543 474.419 197.363 475.465 210.584 487.908Z" fill="#FADE32"/>
<path d="M502.791 218.408C519.059 218.408 532.247 205.657 532.247 189.929C532.247 174.201 519.059 161.45 502.791 161.45C486.523 161.45 473.335 174.201 473.335 189.929C473.335 205.657 486.523 218.408 502.791 218.408Z" fill="#F6F4E2"/>
</g>
<defs>
<filter id="filter0_d_71_8" x="0.0308838" y="0.775635" width="792.695" height="743.781" filterUnits="userSpaceOnUse" color-interpolation-filters="sRGB">
<feFlood flood-opacity="0" result="BackgroundImageFix"/>
<feColorMatrix in="SourceAlpha" type="matrix" values="0 0 0 0 0 0 0 0 0 0 0 0 0 0 0 0 0 0 127 0" result="hardAlpha"/>
<feOffset dy="4"/>
<feGaussianBlur stdDeviation="2"/>
<feComposite in2="hardAlpha" operator="out"/>
<feColorMatrix type="matrix" values="0 0 0 0 0 0 0 0 0 0 0 0 0 0 0 0 0 0 0.25 0"/>
<feBlend mode="normal" in2="BackgroundImageFix" result="effect1_dropShadow_71_8"/>
<feBlend mode="normal" in="SourceGraphic" in2="effect1_dropShadow_71_8" result="shape"/>
</filter>
</defs>
</svg>
