<svg width="748" height="553" viewBox="0 0 748 553" fill="none" xmlns="http://www.w3.org/2000/svg">
<path opacity="0.1" d="M202.238 221.578H118.036C115.054 221.578 112.637 223.999 112.637 226.985V244.928C112.637 247.914 115.054 250.334 118.036 250.334H202.238C205.22 250.334 207.637 247.914 207.637 244.928V226.985C207.637 223.999 205.22 221.578 202.238 221.578Z" fill="#FADE32"/>
<path opacity="0.1" d="M301.657 250.342H217.455C214.473 250.342 212.056 252.762 212.056 255.748V273.691C212.056 276.677 214.473 279.098 217.455 279.098H301.657C304.639 279.098 307.056 276.677 307.056 273.691V255.748C307.056 252.762 304.639 250.342 301.657 250.342Z" fill="#FADE32"/>
<path opacity="0.1" d="M401.083 279.098H316.881C313.899 279.098 311.482 281.518 311.482 284.504V302.447C311.482 305.433 313.899 307.854 316.881 307.854H401.083C404.065 307.854 406.482 305.433 406.482 302.447V284.504C406.482 281.518 404.065 279.098 401.083 279.098Z" fill="#FADE32"/>
<path opacity="0.1" d="M202.238 178.444H118.036C115.054 178.444 112.637 180.865 112.637 183.851V201.794C112.637 204.78 115.054 207.2 118.036 207.2H202.238C205.22 207.2 207.637 204.78 207.637 201.794V183.851C207.637 180.865 205.22 178.444 202.238 178.444Z" fill="#FADE32"/>
<path opacity="0.1" d="M301.657 207.2H217.455C214.473 207.2 212.056 209.621 212.056 212.607V230.55C212.056 233.536 214.473 235.956 217.455 235.956H301.657C304.639 235.956 307.056 233.536 307.056 230.55V212.607C307.056 209.621 304.639 207.2 301.657 207.2Z" fill="#FADE32"/>
<path opacity="0.1" d="M401.083 235.964H316.881C313.899 235.964 311.482 238.384 311.482 241.37V259.313C311.482 262.299 313.899 264.72 316.881 264.72H401.083C404.065 264.72 406.482 262.299 406.482 259.313V241.37C406.482 238.384 404.065 235.964 401.083 235.964Z" fill="#FADE32"/>
<path opacity="0.1" d="M511.547 221.578H427.345C424.363 221.578 421.946 223.999 421.946 226.985V244.928C421.946 247.914 424.363 250.334 427.345 250.334H511.547C514.529 250.334 516.946 247.914 516.946 244.928V226.985C516.946 223.999 514.529 221.578 511.547 221.578Z" fill="#FADE32"/>
<path opacity="0.1" d="M610.966 250.342H526.764C523.782 250.342 521.365 252.762 521.365 255.748V273.691C521.365 276.677 523.782 279.098 526.764 279.098H610.966C613.948 279.098 616.365 276.677 616.365 273.691V255.748C616.365 252.762 613.948 250.342 610.966 250.342Z" fill="#FADE32"/>
<path opacity="0.1" d="M710.391 279.098H626.19C623.208 279.098 620.79 281.518 620.79 284.504V302.447C620.79 305.433 623.208 307.854 626.19 307.854H710.391C713.373 307.854 715.791 305.433 715.791 302.447V284.504C715.791 281.518 713.373 279.098 710.391 279.098Z" fill="#FADE32"/>
<path opacity="0.1" d="M511.547 178.444H427.345C424.363 178.444 421.946 180.865 421.946 183.851V201.794C421.946 204.78 424.363 207.2 427.345 207.2H511.547C514.529 207.2 516.946 204.78 516.946 201.794V183.851C516.946 180.865 514.529 178.444 511.547 178.444Z" fill="#FADE32"/>
<path opacity="0.1" d="M610.966 207.2H526.764C523.782 207.2 521.365 209.621 521.365 212.607V230.55C521.365 233.536 523.782 235.956 526.764 235.956H610.966C613.948 235.956 616.365 233.536 616.365 230.55V212.607C616.365 209.621 613.948 207.2 610.966 207.2Z" fill="#FADE32"/>
<path opacity="0.1" d="M710.391 235.964H626.19C623.208 235.964 620.79 238.384 620.79 241.37V259.313C620.79 262.299 623.208 264.72 626.19 264.72H710.391C713.373 264.72 715.791 262.299 715.791 259.313V241.37C715.791 238.384 713.373 235.964 710.391 235.964Z" fill="#FADE32"/>
<path opacity="0.1" d="M202.238 120.925H118.036C115.054 120.925 112.637 123.346 112.637 126.331V144.275C112.637 147.261 115.054 149.681 118.036 149.681H202.238C205.22 149.681 207.637 147.261 207.637 144.275V126.331C207.637 123.346 205.22 120.925 202.238 120.925Z" fill="#FADE32"/>
<path opacity="0.1" d="M301.657 149.681H217.455C214.473 149.681 212.056 152.102 212.056 155.087V173.031C212.056 176.017 214.473 178.437 217.455 178.437H301.657C304.639 178.437 307.056 176.017 307.056 173.031V155.087C307.056 152.102 304.639 149.681 301.657 149.681Z" fill="#FADE32"/>
<path opacity="0.1" d="M401.083 178.444H316.881C313.899 178.444 311.482 180.865 311.482 183.851V201.794C311.482 204.78 313.899 207.2 316.881 207.2H401.083C404.065 207.2 406.482 204.78 406.482 201.794V183.851C406.482 180.865 404.065 178.444 401.083 178.444Z" fill="#FADE32"/>
<path opacity="0.1" d="M202.238 77.7838H118.036C115.054 77.7838 112.637 80.2043 112.637 83.1901V101.134C112.637 104.119 115.054 106.54 118.036 106.54H202.238C205.22 106.54 207.637 104.119 207.637 101.134V83.1901C207.637 80.2043 205.22 77.7838 202.238 77.7838Z" fill="#FADE32"/>
<path opacity="0.1" d="M301.657 106.547H217.455C214.473 106.547 212.056 108.968 212.056 111.953V129.897C212.056 132.883 214.473 135.303 217.455 135.303H301.657C304.639 135.303 307.056 132.883 307.056 129.897V111.953C307.056 108.968 304.639 106.547 301.657 106.547Z" fill="#FADE32"/>
<path opacity="0.1" d="M401.083 135.303H316.881C313.899 135.303 311.482 137.724 311.482 140.709V158.653C311.482 161.639 313.899 164.059 316.881 164.059H401.083C404.065 164.059 406.482 161.639 406.482 158.653V140.709C406.482 137.724 404.065 135.303 401.083 135.303Z" fill="#FADE32"/>
<path opacity="0.1" d="M511.547 120.925H427.345C424.363 120.925 421.946 123.346 421.946 126.331V144.275C421.946 147.261 424.363 149.681 427.345 149.681H511.547C514.529 149.681 516.946 147.261 516.946 144.275V126.331C516.946 123.346 514.529 120.925 511.547 120.925Z" fill="#FADE32"/>
<path opacity="0.1" d="M610.966 149.681H526.764C523.782 149.681 521.365 152.102 521.365 155.087V173.031C521.365 176.017 523.782 178.437 526.764 178.437H610.966C613.948 178.437 616.365 176.017 616.365 173.031V155.087C616.365 152.102 613.948 149.681 610.966 149.681Z" fill="#FADE32"/>
<path opacity="0.1" d="M710.391 178.444H626.19C623.208 178.444 620.79 180.865 620.79 183.851V201.794C620.79 204.78 623.208 207.2 626.19 207.2H710.391C713.373 207.2 715.791 204.78 715.791 201.794V183.851C715.791 180.865 713.373 178.444 710.391 178.444Z" fill="#FADE32"/>
<path opacity="0.1" d="M511.547 77.7838H427.345C424.363 77.7838 421.946 80.2043 421.946 83.1901V101.134C421.946 104.119 424.363 106.54 427.345 106.54H511.547C514.529 106.54 516.946 104.119 516.946 101.134V83.1901C516.946 80.2043 514.529 77.7838 511.547 77.7838Z" fill="#FADE32"/>
<path opacity="0.1" d="M610.966 106.547H526.764C523.782 106.547 521.365 108.968 521.365 111.953V129.897C521.365 132.883 523.782 135.303 526.764 135.303H610.966C613.948 135.303 616.365 132.883 616.365 129.897V111.953C616.365 108.968 613.948 106.547 610.966 106.547Z" fill="#FADE32"/>
<path opacity="0.1" d="M710.391 135.303H626.19C623.208 135.303 620.79 137.724 620.79 140.709V158.653C620.79 161.639 623.208 164.059 626.19 164.059H710.391C713.373 164.059 715.791 161.639 715.791 158.653V140.709C715.791 137.724 713.373 135.303 710.391 135.303Z" fill="#FADE32"/>
<path opacity="0.1" d="M397.5 553C617.033 553 795 520.586 795 480.601C795 440.616 617.033 408.201 397.5 408.201C177.967 408.201 0 440.616 0 480.601C0 520.586 177.967 553 397.5 553Z" fill="#FADE32"/>
<path d="M174.406 233.57L140.978 438.762L292.13 422.754L285.59 405.291L167.502 415.114L195.117 233.206L174.406 233.57Z" fill="#313541"/>
<path d="M135.165 0.727632L338.638 0L397.5 446.038L193.3 473.688L135.165 0.727632Z" fill="#313541"/>
<path d="M157.329 17.827H321.561L378.969 432.577L209.65 455.861L157.329 17.827Z" fill="white"/>
<path d="M312.216 413.921C313.247 415.9 314.018 418.039 315.362 419.822C319.286 425.075 326.735 425.897 332.323 429.325C332.603 429.467 332.833 429.69 332.984 429.965C333.239 430.569 332.672 431.202 332.127 431.58C327.89 434.556 322.331 434.622 317.15 434.585C315.408 434.647 313.667 434.481 311.968 434.091C309.229 433.363 306.882 431.449 304.178 430.671C302.777 430.32 301.342 430.118 299.898 430.067L294.223 429.681C292.712 429.659 291.215 429.381 289.797 428.859C289.09 428.588 288.464 428.142 287.976 427.563C287.488 426.985 287.154 426.291 287.007 425.548C286.847 424.34 287.363 423.169 287.668 421.99C288.395 419.196 288.169 415.82 290.342 413.913C291.237 413.227 292.264 412.732 293.358 412.458C297.308 411.125 301.339 410.051 305.428 409.242C308.793 408.58 310.726 411.054 312.216 413.921Z" fill="#313541"/>
<path d="M248.02 429.659C248.165 431.209 248.209 432.984 247.089 434.069C246.393 434.648 245.551 435.025 244.655 435.16C239.285 436.411 233.297 436.499 228.624 433.574C228.138 433.296 227.709 432.928 227.36 432.49C226.97 431.893 226.749 431.201 226.72 430.489C226.553 428.429 227.185 426.399 227.76 424.413C229.118 419.699 230.15 414.898 230.848 410.042C230.906 409.642 244.561 412.225 245.469 413.578C246.61 415.252 246.617 419.268 246.922 421.262C247.383 424.047 247.748 426.846 248.02 429.659Z" fill="#313541"/>
<path d="M298.844 240.315L302.478 274.143C303.205 281.055 303.968 288.004 303.466 294.938C302.885 302.942 300.647 310.946 301.591 318.877C301.962 321.962 302.805 324.989 302.928 328.096C302.951 330.162 302.847 332.228 302.616 334.281C300.974 354.808 306.169 375.174 309.076 395.555C309.544 398.069 309.646 400.637 309.381 403.181C309.004 405.764 308.248 409.155 310.544 410.377L288.976 418.206C286.222 414.75 288.046 409.373 287.523 404.985C287.043 401.034 284.877 397.512 283.722 393.707C282.676 390.287 282.458 386.685 282.116 383.134C280.234 363.801 274.457 344.97 273.105 325.593C273.062 323.722 272.818 321.861 272.378 320.042C271.652 317.633 270.198 315.53 269.137 313.267C267.509 309.869 266.71 306.144 265.925 302.462L261.311 280.815C256.645 287.771 256.834 296.823 255.912 305.161C254.618 316.804 251.726 328.249 249.371 339.746C248.824 342.219 248.414 344.721 248.143 347.24C247.533 353.986 248.746 360.796 248.1 367.534C247.373 375.342 244.096 382.96 244.888 390.767C245.324 395.089 246.98 399.179 248.1 403.37C249.219 407.561 249.771 412.16 248.063 416.154C242.095 413.96 235.683 413.251 229.38 414.088C222.455 406.994 221.227 397.098 220.754 387.166C220.282 377.233 221.423 367.287 220.187 357.449C219.824 354.539 219.257 351.701 219.163 348.798C218.858 339.491 223.327 330.781 225.55 321.737C227.551 313.595 227.742 305.112 226.11 296.888C225.02 291.453 223.145 286.178 222.476 280.669C221.568 272.949 223.109 265.171 224.657 257.545C225.696 252.401 226.728 247.257 227.905 242.141C229.169 236.648 230.674 231.038 234.053 226.541C239.459 219.345 249.059 216.15 258.033 216.849C267.008 217.547 275.387 221.637 282.799 226.73C288.641 230.639 294.024 235.197 298.844 240.315Z" fill="#2C2A2B"/>
<path d="M274.733 110.782C274.325 111.437 274.042 112.163 273.897 112.921C273.715 114.413 274.624 115.781 275.351 117.083C276.282 118.757 276.997 120.541 277.48 122.395C277.826 123.542 277.932 124.748 277.792 125.938C277.615 126.832 277.296 127.692 276.848 128.485C275.445 131.192 273.367 133.695 270.54 134.823C268.351 135.63 265.963 135.727 263.716 135.099C261.484 134.467 259.374 133.463 257.474 132.131C255.872 131.114 254.432 129.864 253.201 128.42C252.025 126.841 251.036 125.132 250.251 123.326C248.739 120.161 247.206 116.778 247.482 113.307C247.496 112.992 247.555 112.681 247.656 112.383C247.892 111.844 248.222 111.351 248.63 110.927C251.73 107.249 253.32 102.528 253.077 97.7209L263.665 100.129C265.998 100.661 268.331 101.192 270.634 101.854C272.524 102.4 275.43 103.156 276.659 104.844C277.887 106.533 275.569 109.239 274.733 110.782Z" fill="#FBBEBE"/>
<path d="M269.065 108.977C279.692 108.977 288.307 100.351 288.307 89.7097C288.307 79.0685 279.692 70.442 269.065 70.442C258.437 70.442 249.822 79.0685 249.822 89.7097C249.822 100.351 258.437 108.977 269.065 108.977Z" fill="#FBBEBE"/>
<path d="M265.969 128.58C266.783 126.797 268.541 125.669 270.147 124.549C271.753 123.428 273.381 121.995 273.694 120.052C273.713 119.612 273.822 119.182 274.013 118.786C274.631 117.854 276.099 118.32 276.978 119.004C279.115 120.67 280.568 123.035 281.985 125.342C283.818 128.147 285.387 131.116 286.672 134.212C288.714 139.603 288.961 145.49 289.187 151.245C289.39 156.484 289.586 161.803 288.315 166.882C287.515 170.098 286.135 173.22 286.055 176.531C285.815 188.558 281.644 200.055 281.353 212.083C281.331 215.561 281.506 219.037 281.876 222.495L282.559 230.303C271.993 229.696 261.456 228.767 250.948 227.516C250.643 223.921 249.618 220.436 248.681 216.958C244.842 202.738 242.382 188.181 241.334 173.489C240.775 165.689 240.2 157.918 239.336 150.147C238.558 143.081 237.032 135.972 237.948 128.922C238.427 125.717 239.434 122.614 240.927 119.739C241.399 118.594 242.211 117.621 243.253 116.952C243.773 116.7 244.326 116.522 244.895 116.421C246.542 116.087 248.215 115.89 249.895 115.832C250.305 115.797 250.719 115.836 251.115 115.948C251.823 116.301 252.405 116.866 252.779 117.563C256.017 122.437 260.599 126.265 265.969 128.58Z" fill="#F2F2F2"/>
<path d="M257.045 127.037C258.397 128.973 261.26 129.431 262.51 131.403C262.931 132.227 263.251 133.099 263.462 134.001C264.225 136.438 265.765 138.556 266.703 140.935C268.055 144.355 268.091 148.138 268.105 151.813C268.238 154.74 268.014 157.672 267.437 160.545C267.001 162.342 266.289 164.052 265.765 165.827C264.877 168.846 264.547 172.003 264.792 175.141C264.792 175.819 264.972 176.484 265.315 177.069C265.808 177.653 266.451 178.091 267.175 178.335C269.304 179.274 271.535 180.234 273.861 180.016C274.338 180.001 274.8 179.847 275.191 179.572C275.46 179.326 275.682 179.033 275.845 178.706L277.298 176.247C278.613 173.998 279.987 171.481 279.478 168.912C279.109 167.587 278.553 166.32 277.829 165.15C276.9 163.252 276.108 161.29 275.46 159.278C273.141 152.606 270.794 145.839 270.271 138.796C269.963 136.115 270.261 133.4 271.143 130.85C271.826 129.281 272.684 127.794 273.701 126.419C273.471 126.11 273.152 125.878 272.788 125.754C272.423 125.631 272.029 125.621 271.659 125.727C270.928 125.954 270.22 126.248 269.544 126.608C267.408 127.51 265.039 127.183 262.88 126.564C262.038 126.317 260.7 125.473 259.828 125.531C259.53 125.567 257.096 127.124 257.045 127.037Z" fill="#FADE32"/>
<path d="M274.057 126.957C273.621 126.608 272.945 126.288 272.56 126.695C272.431 126.872 272.337 127.072 272.284 127.285C271.906 128.303 270.794 128.805 269.784 129.198C268.774 129.591 267.684 129.809 267.073 129.06C266.881 128.768 266.786 128.422 266.803 128.073C266.82 127.724 266.948 127.389 267.168 127.117C267.615 126.578 268.154 126.122 268.759 125.771C272.102 123.409 274.379 119.821 275.096 115.788C276.033 116.534 276.654 117.608 276.833 118.793C277.073 119.95 277.102 121.143 277.342 122.3C277.698 123.959 278.49 125.509 278.671 127.19C278.766 128.085 278.671 128.987 278.671 129.882C278.704 130.757 278.806 131.628 278.977 132.487C277.276 130.683 276.077 128.565 274.057 126.957Z" fill="#F2F2F2"/>
<path d="M259.349 122.016C258.622 121.325 257.895 120.67 257.169 119.965C253.98 116.848 251.572 113.021 250.142 108.795C249.211 109.523 248.187 110.484 248.165 111.706C248.248 112.571 248.581 113.393 249.124 114.071C251.872 118.404 253.686 123.264 254.451 128.34C254.843 127.725 255.387 127.223 256.03 126.88C256.673 126.537 257.393 126.366 258.121 126.382C259.269 126.382 264.421 129.438 264.792 128.667C265.337 127.459 260.221 122.839 259.349 122.016Z" fill="#F2F2F2"/>
<path d="M275.576 116.225C282.412 123.038 290.78 128.111 299.978 131.017C300.892 131.217 301.741 131.648 302.442 132.269C302.965 132.924 303.317 133.699 303.466 134.525C305.239 141.466 305.835 148.648 306.424 155.786C306.578 156.966 306.553 158.164 306.351 159.337C305.922 161.243 304.571 162.786 303.241 164.219C299.07 168.694 294.31 173.373 293.605 179.456C293.551 180.628 293.413 181.796 293.191 182.948C292.827 184.302 292.021 185.495 291.527 186.812C289.1 193.295 294.586 201.146 291.243 207.186C293.053 210.667 294.294 214.416 294.92 218.29C295.032 219.758 295.368 221.201 295.916 222.568C296.911 224.649 298.961 225.973 300.574 227.661C305.494 232.711 306.097 240.439 306.387 247.489C306.569 251.462 306.511 256.024 303.481 258.629C301.729 260.15 299.339 260.645 297.049 261.023C294.005 261.533 290.691 261.896 287.995 260.39C286.062 259.313 284.747 257.429 283.489 255.61C281.106 252.139 278.715 248.675 276.455 245.117C272.88 239.507 269.508 233.097 270.54 226.519C270.249 233.25 268.832 240.031 265.533 245.896C262.234 251.761 256.922 256.658 250.476 258.593C244.03 260.529 236.494 259.161 231.691 254.446C230.123 252.829 228.776 251.011 227.687 249.039C224.953 244.351 222.957 239.268 221.772 233.97C221.459 232.595 221.227 231.059 221.917 229.83C222.244 229.248 222.745 228.789 223.087 228.214C224.235 226.257 223.13 223.79 222.019 221.797C220.325 221.957 219.112 219.963 219.264 218.26C219.417 216.558 220.434 215.081 221.154 213.531C223.261 208.961 222.796 203.642 221.779 198.716C220.761 193.79 219.243 188.893 219.359 183.865C219.482 178.546 215.66 173.758 212.746 169.313C211.118 166.81 209.222 164.481 207.805 161.854C204.85 156.327 204.167 149.863 205.901 143.838C206.918 140.745 208.253 137.765 209.883 134.947L212.281 130.443C212.727 129.366 213.421 128.41 214.304 127.652C215.188 126.894 216.237 126.354 217.368 126.077L233.958 119.528C236.08 118.803 238.094 117.794 239.946 116.53C241.974 115.002 243.485 112.892 245.418 111.262C245.7 110.966 246.038 110.729 246.412 110.565C246.786 110.402 247.19 110.314 247.598 110.309C249.153 110.447 249.706 112.412 249.865 113.947C250.229 117.382 252.772 120.292 253.637 123.632C258.317 142.077 268.222 159.089 270.939 177.92C273.992 170.579 277.044 163.222 280.953 156.31C281.57 155.317 282.088 154.267 282.501 153.174C282.97 151.597 283.145 149.946 283.017 148.306C282.821 143.569 281.564 138.941 280.321 134.364C278.708 128.136 277.254 122.395 275.576 116.225Z" fill="#313541"/>
<path d="M307.194 172.587C307.514 175.687 307.826 178.794 308.4 181.857C309.069 185.401 310.086 188.864 311.096 192.328C311.59 194.275 312.297 196.161 313.204 197.952C313.533 198.472 313.794 199.032 313.981 199.618C314.338 201.074 313.524 202.529 313.175 203.984C312.128 208.35 315.268 213.203 313.291 217.227C312.695 218.45 311.656 219.461 311.264 220.771C310.806 222.277 311.264 223.885 311.503 225.442C312.121 229.808 310.631 234.247 309.163 238.445L306.664 245.532C304.382 241.283 302.078 236.99 298.924 233.344C297.798 232.035 296.57 230.819 295.531 229.437C293.981 227.264 292.757 224.877 291.897 222.35C289.679 216.346 288.411 210.031 288.14 203.635C287.96 201.817 288.171 199.981 288.758 198.251C289.239 197.25 289.778 196.278 290.371 195.34C292.319 191.826 292.718 187.664 292.682 183.647C292.646 179.63 292.217 175.599 292.682 171.605C293.062 168.269 294.047 165.032 295.589 162.051C296.499 160.121 297.851 158.433 299.535 157.125C300.792 156.183 302.325 155.684 303.895 155.706C306.271 155.844 305.726 157.889 305.93 159.861L307.194 172.587Z" fill="#313541"/>
<path d="M200.305 162.684C198.823 167.05 197.486 171.454 196.294 175.898C195.131 180.263 194.092 184.654 193.176 189.068C192.706 191.009 192.443 192.994 192.391 194.991C192.484 197.315 192.883 199.617 193.576 201.838C198.256 218.726 206.787 234.305 216.394 248.952C219.139 245.524 222.4 242.544 226.059 240.118C226.358 239.941 226.608 239.691 226.786 239.391C226.878 239.108 226.905 238.808 226.864 238.513C226.824 238.218 226.718 237.936 226.553 237.688C223.901 232.245 219.7 227.45 218.378 221.535C217.826 219.075 217.804 216.514 217.179 214.069C216.372 210.904 214.57 208.008 214.156 204.763C213.713 201.227 214.883 197.37 213.226 194.234C216.605 192.917 218.56 189.432 219.991 186.092C221.521 182.675 222.615 179.079 223.247 175.388C224.242 168.313 222.859 161.107 219.315 154.906C217.585 151.812 215.364 149.02 212.739 146.64C211.874 145.861 209.832 143.627 208.575 143.649C206.896 143.685 206.358 146.407 205.879 147.629C203.939 152.621 202.02 157.62 200.305 162.684Z" fill="#313541"/>
<path d="M230.405 244.128C230.623 244.288 230.87 244.506 230.812 244.768C230.753 245.03 230.543 245.095 230.354 245.205C229.371 245.902 228.638 246.897 228.261 248.042C227.053 250.768 226 253.559 225.107 256.403C223.481 253.963 221.568 251.728 219.41 249.745C217.753 248.217 215.9 246.769 215.013 244.703C215.013 244.644 218.821 241.828 219.17 241.523C220.238 240.57 221.583 237.928 222.687 237.346C223.937 236.691 225.129 239.26 226.081 240.293C227.39 241.713 228.839 242.997 230.405 244.128Z" fill="#FBBEBE"/>
<path d="M289.499 86.6973C289.448 85.7441 289.325 84.6891 288.598 84.0706C287.96 83.6288 287.192 83.4159 286.418 83.4667C282.181 83.3284 277.799 84.0415 273.803 82.6153C271.172 81.6767 268.927 79.8721 266.361 78.7516C263.796 77.631 260.511 77.3327 258.44 79.2173C256.871 80.6725 256.442 82.9064 255.897 84.9656C254.697 89.5104 252.561 93.7536 249.626 97.4226C247.656 96.8114 246.247 95.0505 245.338 93.2024C242.25 86.9011 243.769 79.3774 245.963 72.6977C246.69 70.4566 247.496 68.2373 248.303 66.0253L250.076 61.1356C252.403 60.9068 254.566 59.8295 256.151 58.1087L256.914 59.9641C258.885 59.8932 260.787 59.2203 262.365 58.0359C262.975 59.1856 264.545 59.4912 265.816 59.1201C267.088 58.749 268.185 58.0359 269.45 57.6648C272.829 56.5734 276.433 58.2542 279.98 58.4434C281.48 58.4068 282.982 58.4505 284.478 58.5744C288.664 59.2511 291.621 63.1948 292.9 67.2405C293.75 69.9327 294.455 73.2434 297.108 74.1966C297.166 75.2153 295.364 75.4118 295.211 76.3795C295.193 76.7022 295.269 77.0231 295.429 77.3036L297.863 82.5353C296.7 82.8278 295.475 82.767 294.346 82.3606C293.249 84.9437 289.608 88.6692 289.499 86.6973Z" fill="#2C2A2B"/>
<path d="M412.862 98.0847C414.096 102.075 415.067 106.141 415.769 110.258C416.292 113.343 416.597 116.77 414.832 119.346C421.561 109.21 428.588 98.7687 438.812 92.2273C436.73 89.9668 435.146 87.2931 434.164 84.3798C433.181 81.4665 432.821 78.3787 433.108 75.3171C433.166 74.7059 424.715 77.9002 424.068 78.264C421.103 79.9157 418.385 81.9677 415.493 83.7358C413.996 84.6454 407.761 86.7991 407.703 88.1016C407.703 88.9384 410.181 91.4996 410.646 92.3801C411.558 94.2093 412.3 96.1189 412.862 98.0847Z" fill="#FBBEBE"/>
<path d="M444.132 480.368C442.47 479.196 440.523 478.496 438.497 478.342C436.47 478.189 434.44 478.587 432.621 479.495C429.329 481.197 427.113 484.421 424.119 486.604C418.974 490.344 412.179 490.642 406.155 492.665C404.556 493.203 402.856 494.004 402.18 495.575C401.953 496.236 401.863 496.936 401.914 497.632C401.965 498.329 402.157 499.008 402.478 499.628C403.485 501.876 405.25 503.697 407.463 504.772C410.166 506.068 413.276 506.126 416.27 506.162L442.286 506.468C450.28 506.562 458.324 506.657 466.267 507.654C468.12 507.887 470.125 508.141 471.761 507.232C474.42 505.777 474.725 502.095 474.522 499.061C473.986 491.373 472.271 483.814 469.435 476.65C469.123 475.857 468.708 474.954 467.829 474.809C467.205 474.78 466.592 474.977 466.1 475.362C458.76 479.727 449.466 482.194 441.661 478.702" fill="white"/>
<path d="M457.154 314.177C454.247 331.08 456.144 348.448 459.414 365.278C460.016 368.629 460.81 371.943 461.79 375.203C462.96 378.914 464.537 382.48 465.635 386.212C468.425 395.672 468.033 405.786 467.618 415.66L465.715 460.591C465.555 464.36 465.409 468.216 466.543 471.811C467.001 473.266 467.56 475.085 466.405 476.068C465.953 476.393 465.425 476.596 464.872 476.657C459.672 477.616 454.301 476.81 449.611 474.365L449.095 428.975C448.935 414.983 448.768 400.932 446.617 387.115C444.909 376.127 441.944 365.286 441.748 354.167C441.545 342.525 444.393 331.036 447.3 319.75C447.925 317.335 450.207 315.567 452.082 313.929C452.736 313.283 453.533 312.8 454.407 312.518C455.279 312.278 456.616 313.442 457.154 314.177Z" fill="#313541"/>
<path opacity="0.1" d="M457.154 314.177C454.247 331.08 456.144 348.448 459.414 365.278C460.016 368.629 460.81 371.943 461.79 375.203C462.96 378.914 464.537 382.48 465.635 386.212C468.425 395.672 468.033 405.786 467.618 415.66L465.715 460.591C465.555 464.36 465.409 468.216 466.543 471.811C467.001 473.266 467.56 475.085 466.405 476.068C465.953 476.393 465.425 476.596 464.872 476.657C459.672 477.616 454.301 476.81 449.611 474.365L449.095 428.975C448.935 414.983 448.768 400.932 446.617 387.115C444.909 376.127 441.944 365.286 441.748 354.167C441.545 342.525 444.393 331.036 447.3 319.75C447.925 317.335 450.207 315.567 452.082 313.929C452.736 313.283 453.533 312.8 454.407 312.518C455.279 312.278 456.616 313.442 457.154 314.177Z" fill="black"/>
<path d="M402.587 261.351C401.511 265.782 403.793 270.373 403.539 274.928C403.393 277.686 402.311 280.436 402.812 283.143C403.314 285.85 405.247 287.887 406.278 290.369C407.031 292.441 407.429 294.625 407.456 296.83C407.754 302.273 407.514 307.744 407.31 313.165C406.969 322.261 406.714 331.407 407.914 340.422C408.958 348.233 411.078 355.861 414.214 363.088C415.164 365.054 415.95 367.096 416.561 369.193C416.963 371.147 417.23 373.126 417.361 375.116C418.051 381.589 419.786 387.907 422.498 393.823C424.351 397.876 427.585 401.1 428.61 405.4C429.583 409.518 428.929 413.862 429.634 418.032C430.15 421.124 431.407 424.049 432.105 427.105C433.013 431.056 432.992 435.153 433.449 439.184C434.757 450.826 440.041 462.468 436.887 473.761C436.254 476.031 435.273 478.338 435.717 480.652C435.935 481.787 436.487 482.907 436.24 484.035C436.036 484.995 435.295 485.738 434.917 486.647C434.191 488.35 434.961 490.373 436.254 491.69C437.634 492.917 439.238 493.866 440.978 494.484C446.334 496.776 451.878 499.104 457.692 499.053C458.398 499.091 459.102 498.961 459.748 498.675C460.795 498.129 461.311 496.943 461.754 495.852L464.734 488.474C465.097 487.579 465.46 486.531 464.959 485.701C464.61 485.246 464.187 484.853 463.709 484.537C461.304 482.507 461.849 478.716 462.488 475.667C464.122 467.837 465.027 459.871 465.191 451.874C465.511 435.924 462.888 420.069 460.272 404.33C459.363 398.866 458.448 393.365 456.638 388.126C454.829 382.887 452.162 377.844 452.598 372.402C453.063 366.523 451.537 360.36 452.598 354.56C453.659 348.761 455.337 343.086 456.42 337.294C457.823 329.777 458.172 322.115 458.6 314.49C458.782 311.375 459.014 308.159 460.468 305.394C461.318 303.779 462.553 302.396 463.505 300.832C465.962 296.765 466.354 291.722 468.701 287.589C469.813 285.632 471.346 283.907 472.16 281.812C472.732 280.159 473.031 278.424 473.047 276.675C473.277 272.283 473.034 267.88 472.32 263.541C459.95 257.238 446.231 254.051 432.352 254.256C427.04 254.344 421.67 254.882 416.685 256.723C411.932 258.491 407.601 260.972 402.587 261.351Z" fill="#313541"/>
<path d="M432.381 491.879C430.245 494.542 430.39 498.348 429.024 501.484C427.367 505.289 423.675 507.727 420.173 509.946L398.372 523.771C397.18 524.499 395.901 525.394 395.465 526.747C395.258 527.611 395.296 528.516 395.574 529.359C396.095 531.185 397.065 532.851 398.395 534.204C399.726 535.556 401.375 536.553 403.19 537.101C405.119 537.562 407.101 537.765 409.084 537.705L418.887 537.836C421.873 537.953 424.864 537.836 427.832 537.487C430.55 537.094 433.195 536.315 435.898 535.821C440.818 534.926 445.876 535.006 450.803 534.14C453.82 533.546 456.799 532.776 459.727 531.833C463.287 530.764 466.914 529.65 469.966 527.533C470.806 527.021 471.488 526.285 471.935 525.408C472.451 524.208 472.168 522.832 471.877 521.559L467.197 500.967C466.933 499.252 466.309 497.613 465.366 496.157C464.327 494.775 462.459 493.858 460.838 494.448C460.17 494.753 459.538 495.133 458.956 495.583C456.558 497.162 453.484 497.424 450.65 496.929C448.819 496.601 446.399 496.099 444.924 494.884C443.805 493.96 443.471 492.527 442.519 491.479C441.851 490.793 441.047 490.254 440.159 489.899C439.27 489.544 438.317 489.38 437.361 489.418C436.405 489.456 435.468 489.694 434.61 490.118C433.752 490.542 432.993 491.142 432.381 491.879Z" fill="white"/>
<path d="M418.247 95.247C432.747 95.247 444.502 83.4768 444.502 68.9577C444.502 54.4385 432.747 42.6683 418.247 42.6683C403.747 42.6683 391.992 54.4385 391.992 68.9577C391.992 83.4768 403.747 95.247 418.247 95.247Z" fill="#FBBEBE"/>
<path d="M397.994 70.5003C400.508 69.0887 400.508 65.0212 403.081 63.6678C405.653 62.3144 408.575 64.6647 410.224 67.0367C412.629 70.5107 414.298 74.4404 415.129 78.5843C415.362 79.763 415.58 81.0509 416.467 81.8731C417.353 82.6954 418.516 82.7972 419.649 82.9137C422.968 83.2435 426.291 83.5443 429.62 83.8159C433.326 84.1143 437.235 84.3544 440.6 82.7609C441.928 82.1664 443.069 81.2205 443.899 80.025C444.565 78.877 445.041 77.6288 445.309 76.3286C447.046 69.7144 448.797 63.0202 448.942 56.1805C449.001 53.3573 448.753 50.4322 447.395 47.9582C446.602 46.503 445.44 45.2369 445.113 43.6361C444.786 42.0353 445.839 39.9979 447.496 40.1726C445.999 40.2342 444.507 39.9504 443.136 39.3431C441.821 38.6154 440.847 37.051 441.312 35.6249C437.621 36.0978 434.932 32.4451 432.054 30.0803C431.586 29.6158 430.954 29.3544 430.296 29.3527C429.79 29.479 429.302 29.6672 428.842 29.913C427.389 30.4223 425.87 29.4546 424.38 29.0325C420.383 27.912 415.304 30.6188 412.339 27.7083C412.622 29.5637 410.348 30.808 408.473 30.7716C406.598 30.7352 404.665 30.0439 402.892 30.6697C403.149 31.14 403.299 31.6613 403.331 32.1964C403.363 32.7314 403.277 33.267 403.078 33.7648C402.88 34.2625 402.574 34.7102 402.182 35.0758C401.791 35.4414 401.323 35.7159 400.814 35.8796L401.693 37.8005C400.787 37.9818 399.95 38.4132 399.276 39.0457C398.601 39.6783 398.117 40.487 397.878 41.3805C396.911 45.2005 397.151 50.6286 397.384 54.5579C397.5 56.2823 399.179 69.8527 397.994 70.5003Z" fill="#2C2A2B"/>
<path d="M420.398 102.844C407.209 117.694 403.851 138.599 401.039 158.282L396.897 187.343C395.821 194.882 394.717 202.42 393.779 209.98C393.125 215.153 392.515 220.407 393.227 225.573C393.787 229.648 395.146 233.577 396.279 237.499C399.229 247.786 400.697 258.442 400.639 269.144C401.519 266.553 404.563 265.506 407.238 264.923C429.676 260.049 453.087 262.552 473.992 272.062C477.661 261.766 476.971 250.502 477.996 239.616C479.449 224.096 484.456 209.056 485.938 193.565C486.483 187.795 486.549 181.995 486.607 176.196C486.65 171.939 486.694 167.639 485.808 163.47C484.819 158.857 482.734 154.556 480.575 150.372C474.609 138.742 467.98 127.465 460.722 116.596C457.069 111.124 453.259 105.761 449.291 100.508C447.281 97.8447 445.229 95.2107 443.136 92.6058C441.109 90.0809 440.229 87.8907 437.01 89.4042C430.928 92.2565 424.824 97.8593 420.398 102.844Z" fill="#FADE32"/>
<path d="M427.956 226.454C424.738 226.57 421.516 226.468 418.312 226.148C415.936 225.915 413.509 225.566 411.191 226.148C410.183 226.402 409.24 226.866 408.422 227.509C408.119 227.779 407.902 228.131 407.796 228.523C407.69 228.915 407.7 229.33 407.826 229.716C407.952 230.102 408.187 230.443 408.503 230.697C408.82 230.951 409.203 231.107 409.607 231.147L412.092 231.365C413.669 231.503 415.311 231.663 416.539 232.82C417.044 233.275 417.364 233.899 417.44 234.574C417.593 236.269 416.125 237.193 414.81 237.899C412.94 238.778 411.211 239.931 409.679 241.319C408.48 242.479 407.726 244.025 407.55 245.685C407.545 245.833 407.578 245.98 407.647 246.111C407.716 246.242 407.818 246.352 407.943 246.431C408.069 246.51 408.212 246.554 408.36 246.56C408.508 246.566 408.655 246.532 408.785 246.463C411.692 245.008 413.589 240.693 416.779 241.414C413.877 242.334 411.392 244.248 409.759 246.82C409.356 247.434 409.173 248.166 409.238 248.898C409.303 249.63 409.613 250.318 410.118 250.852C410.623 251.385 411.292 251.732 412.019 251.836C412.745 251.94 413.485 251.796 414.119 251.426C414.592 251.149 415.048 250.845 415.486 250.516C417.647 248.764 419.583 246.75 421.248 244.521C418.923 249.432 416.568 255.18 419.243 260.063C419.376 260.331 419.584 260.555 419.842 260.708C420.1 260.86 420.397 260.934 420.696 260.921C421.539 260.834 421.786 260.041 421.924 259.342C422.36 257.094 422.469 254.722 423.574 252.721C426.132 248.079 432.439 247.628 437.243 245.365C443.005 242.687 446.951 236.924 448.543 230.768C449.1 228.973 449.197 227.067 448.826 225.224C447.758 221.084 442.657 220.13 439.379 222.131C435.361 224.685 433.028 226.293 427.956 226.454Z" fill="#FBBEBE"/>
<path opacity="0.1" d="M422.854 145.01C427.941 152.875 436.77 157.307 444.342 162.829C446.19 164.034 447.801 165.568 449.095 167.355C451.006 170.309 451.275 174.064 450.883 177.542C450.389 182.133 448.913 186.55 447.453 190.931L444.277 200.426C442.264 206.451 440.186 212.599 436.356 217.664C435.375 218.952 434.234 220.327 434.278 221.942C434.362 222.875 434.682 223.772 435.208 224.547C436.434 226.55 438.049 228.285 439.958 229.65C441.866 231.015 444.03 231.982 446.319 232.493C447.69 232.842 449.127 232.842 450.497 232.493C452.46 231.911 453.935 230.31 455.301 228.796C461.841 221.571 468.381 214.244 473.105 205.767C477.719 197.494 480.481 188.304 483.024 179.201C484.072 175.85 484.802 172.408 485.204 168.92C485.742 162.371 484.027 155.822 481.222 149.907C478.417 143.991 474.558 138.636 470.583 133.433C466.832 128.323 462.663 123.533 458.12 119.113C450.214 111.713 440.542 107.362 429.961 111.56C422.491 114.529 419.693 120.721 419.024 128.653C418.458 134.379 419.805 140.132 422.854 145.01Z" fill="black"/>
<path d="M425.499 143.016C430.586 150.882 439.423 155.313 446.988 160.836C448.829 162.052 450.432 163.596 451.718 165.391C453.63 168.345 453.898 172.092 453.506 175.578C453.005 180.169 451.537 184.586 450.069 188.966L446.893 198.425C444.88 204.45 442.802 210.591 438.972 215.663C437.998 216.951 436.858 218.319 436.901 219.941C436.981 220.873 437.302 221.768 437.831 222.539C439.055 224.542 440.669 226.279 442.576 227.645C444.484 229.011 446.646 229.979 448.935 230.492C450.309 230.841 451.747 230.841 453.121 230.492C455.083 229.917 456.551 228.309 457.924 226.803C464.465 219.57 471.005 212.25 475.728 203.773C480.343 195.5 483.104 186.31 485.648 177.2C486.698 173.852 487.428 170.412 487.828 166.926C488.365 160.377 486.65 153.829 483.853 147.906C481.055 141.983 477.189 136.635 473.214 131.432C469.449 126.349 465.271 121.586 460.722 117.192C452.823 109.8 443.151 105.441 432.57 109.647C425.092 112.616 422.302 118.8 421.626 126.739C421.093 132.444 422.454 138.165 425.499 143.016Z" fill="#FADE32"/>
<path d="M586.185 404.01C586.191 405.908 585.996 407.8 585.604 409.657C585.531 410.006 585.451 410.384 585.371 410.683C583.308 418.97 577.487 425.031 570.54 425.417C570.307 425.417 570.075 425.417 569.813 425.417C562.466 425.417 556.253 419.072 554.204 410.333C554.145 410.1 554.095 409.868 554.044 409.606C553.652 407.749 553.457 405.857 553.462 403.959C553.462 392.121 560.78 382.531 569.813 382.531C578.846 382.531 586.185 392.193 586.185 404.01Z" fill="#313541"/>
<path opacity="0.1" d="M586.185 404.01C586.191 405.908 585.996 407.8 585.604 409.657C585.531 410.006 585.451 410.384 585.371 410.682C585.124 410.682 584.884 410.682 584.645 410.682C582.845 410.585 581.056 410.342 579.296 409.955C577.737 410.438 576.143 410.802 574.529 411.046C573.292 411.233 572.045 411.349 570.794 411.396H569.529C568.032 411.396 566.537 411.296 565.053 411.097C562.654 410.776 560.297 410.191 558.026 409.351C556.783 409.765 555.516 410.106 554.233 410.37C554.174 410.137 554.124 409.904 554.073 409.642C553.681 407.786 553.486 405.893 553.491 403.996C553.491 392.157 560.809 382.567 569.842 382.567C578.875 382.567 586.185 392.193 586.185 404.01Z" fill="black"/>
<path d="M621.067 364.092C621.073 358.883 619.853 353.745 617.506 349.096L598.277 355.084L615.159 345.145C612.327 341.05 608.613 337.645 604.292 335.179C599.97 332.713 595.151 331.25 590.189 330.898C589.4 329.698 588.533 328.551 587.595 327.463L559.981 336.071L582.632 322.734C578.299 319.404 573.213 317.195 567.824 316.302C562.436 315.409 556.91 315.86 551.737 317.615C546.564 319.37 541.902 322.374 538.165 326.362C534.428 330.35 531.73 335.2 530.31 340.481L553.964 367.745L528.304 349.161C521.804 353.777 517.177 360.578 515.265 368.324C513.354 376.07 514.285 384.247 517.89 391.363C521.494 398.479 527.532 404.062 534.903 407.094C542.274 410.126 550.488 410.405 558.048 407.881C564.886 410.398 572.359 410.605 579.325 408.471C584.182 409.541 589.217 409.507 594.059 408.372C598.901 407.237 603.427 405.03 607.305 401.912C611.183 398.795 614.313 394.846 616.466 390.357C618.618 385.869 619.739 380.954 619.744 375.975C619.744 375.247 619.744 374.519 619.671 373.792C620.613 370.645 621.083 367.377 621.067 364.092Z" fill="#FADE32"/>
<path opacity="0.1" d="M620.492 370.263C610.338 368.335 599.925 368.202 589.724 369.87C578.177 371.783 566.376 375.989 555.083 372.918C548.455 371.114 542.729 366.937 536.254 364.616C530.007 362.434 523.278 362.031 516.815 363.452C514.353 369.351 513.638 375.835 514.758 382.129C515.877 388.424 518.782 394.263 523.127 398.948C527.471 403.633 533.071 406.967 539.257 408.551C545.443 410.136 551.954 409.903 558.011 407.881C564.85 410.398 572.322 410.605 579.289 408.471C584.146 409.541 589.18 409.507 594.022 408.372C598.864 407.237 603.391 405.03 607.269 401.912C611.146 398.795 614.276 394.846 616.429 390.357C618.582 385.869 619.702 380.954 619.708 375.974C619.708 375.247 619.707 374.519 619.635 373.792C619.985 372.632 620.272 371.454 620.492 370.263Z" fill="black"/>
</svg>
